<svg xmlns="http://www.w3.org/2000/svg" xmlns:xlink="http://www.w3.org/1999/xlink" width="147.957" height="147.898" enable-background="new"><linearGradient id="a"><stop offset="0" stop-color="#fff"/><stop offset=".393" stop-color="#fff"/><stop offset="1"/></linearGradient><linearGradient id="b"><stop offset="0" stop-color="#c3a87a" stop-opacity="0"/><stop offset="1" stop-color="#c29752"/></linearGradient><linearGradient id="c"><stop offset="0" stop-color="#826e4a" stop-opacity="0"/><stop offset=".213" stop-color="#7d6948"/><stop offset="1" stop-color="#7f6a49"/></linearGradient><linearGradient id="d"><stop offset="0" stop-color="#e8d3ae"/><stop offset="1" stop-color="#dec393"/></linearGradient><linearGradient id="e"><stop offset="0" stop-color="#d8b880"/><stop offset="1" stop-color="#b6a280"/></linearGradient><linearGradient id="f"><stop offset="0" stop-color="#56421e" stop-opacity="0"/><stop offset=".361" stop-color="#5e4a28"/><stop offset="1" stop-color="#675332"/></linearGradient><linearGradient id="g"><stop offset="0" stop-color="#c2ac88"/><stop offset=".643" stop-color="#c0ad84"/><stop offset="1" stop-color="#d4c387"/></linearGradient><linearGradient id="h"><stop offset="0" stop-color="#dec495"/><stop offset="1" stop-color="#5d5546"/></linearGradient><linearGradient id="i"><stop offset="0" stop-color="#cd9f4b"/><stop offset="1" stop-color="#cab791"/></linearGradient><linearGradient id="j"><stop offset="0" stop-color="#f8e2ba"/><stop offset="1" stop-color="#e3c897"/></linearGradient><clipPath id="k"><rect width="55.5" height="34" x="7.5" y="489.5" rx="3"/></clipPath><clipPath id="l"><rect width="36" height="54" x="17" y="435.5" rx="3"/></clipPath><clipPath id="m"><rect width="49" height="17" x="8" y="418.5" rx="3"/></clipPath><clipPath id="n"><path d="m27.649267 414.77215c.378131-17.01867 2.858251-32.8784 7.102372-42.91717.499529-1.54168 2.189612-3.01006 3.393063-2.66431l18.774085 6.94084c1.645393.52253 3.090707 2.14012 2.50279 3.6376-3.592606 10.89416-6.30948 24.38484-6.30948 36.04197 0 1.98793-1.879838 2.7527-3.48145 2.7527h-19.434396c-1.640157-.43948-2.516183-1.98479-2.546984-3.79163z"/></clipPath><clipPath id="o"><path d="m37.391926 365.06074c3.416875-9.71451 15.009391-29.13964 23.619168-35.99848 1.193294-.9942 2.848203-1.29646 4.161818-.30276l14.573276 13.46865c1.225226 1.21467 1.773765 2.89594.580473 3.84595-8.576892 7.92782-15.651682 21.05732-19.470112 29.54243-.707157 1.30356-2.71562 1.11969-4.206012.47953l-18.722332-6.9684c-1.225226-.77273-1.066659-2.71916-.536279-4.06692z"/></clipPath><clipPath id="p"><path d="m65.997202 324.0991c6.097174-6.52483 24.799866-19.24027 40.014248-23.32202 1.72415-.42947 2.77958.541 3.00995 1.74194l4.1895 19.78632c.35913 1.65171.18735 3.26672-1.19579 3.76231-12.59904 4.6186-22.988128 11.95434-28.525366 17.31473-.933234.90303-2.930279-.20233-4.026421-1.3l-14.485127-13.42548c-.963559-1.05348-.143315-3.31395 1.019006-4.5578z"/></clipPath><clipPath id="q"><path d="m135 287.60225c10.8992 0 22.70601 8.45621 26.125 13.50079l-4.5 20.56949c-.375 1.54066-1.463 3.58128-3 2.89378-5.84098-2.48853-15.60287-4.05793-18.62511-4.05793-3.01187 0-12.70071 2.01089-18.87489 4.05793-1.15756.54105-2.69064-1.33482-3-2.89378l-4.5-20.81064c3.6766-5.03702 15.29911-13.25964 26.375-13.25964z"/></clipPath><clipPath id="r"><path d="m204.0028 324.0991c-6.09718-6.52483-24.79987-19.24027-40.01425-23.32202-1.72415-.42947-2.77958.541-3.00995 1.74194l-4.1895 19.78632c-.35913 1.65171-.18735 3.26672 1.19579 3.76231 12.59904 4.6186 22.98813 11.95434 28.52537 17.31473.93323.90303 2.93028-.20233 4.02642-1.3l14.48512-13.42548c.96356-1.05348.14332-3.31395-1.019-4.5578z"/></clipPath><clipPath id="s"><path d="m232.60807 365.06074c-3.41687-9.71451-15.00939-29.13964-23.61916-35.99848-1.1933-.9942-2.84821-1.29646-4.16182-.30276l-14.57328 13.46865c-1.22522 1.21467-1.77376 2.89594-.58047 3.84595 8.57689 7.92782 15.65168 21.05732 19.47011 29.54243.70716 1.30356 2.71562 1.11969 4.20601.47953l18.72234-6.9684c1.22522-.77273 1.06665-2.71916.53627-4.06692z"/></clipPath><clipPath id="t"><path d="m242.35073 414.77215c-.37813-17.01867-2.85825-32.8784-7.10237-42.91717-.49953-1.54168-2.18961-3.01006-3.39306-2.66431l-18.77409 6.94084c-1.64539.52253-3.0907 2.14012-2.50279 3.6376 3.59261 10.89416 6.30948 24.38484 6.30948 36.04197 0 1.98793 1.87984 2.7527 3.48145 2.7527h19.4344c1.64016-.43948 2.51618-1.98479 2.54698-3.79163z"/></clipPath><clipPath id="u"><rect width="49" height="17" x="-262" y="418.5" rx="3" transform="scale(-1 1)"/></clipPath><clipPath id="v"><rect width="36" height="54" x="-253" y="435.5" rx="3" transform="scale(-1 1)"/></clipPath><clipPath id="w"><rect width="55.5" height="34" x="-262.5" y="489.5" rx="3" transform="scale(-1 1)"/></clipPath><filter id="x" width="1.212" height="1.347" x="-.106" y="-.173"><feGaussianBlur stdDeviation="2.454"/></filter><filter id="y" width="1.369" height="1.238" x="-.185" y="-.119"><feGaussianBlur stdDeviation="2.454"/></filter><filter id="z" width="1.241" height="1.274" x="-.121" y="-.137"><feGaussianBlur stdDeviation="2.454"/></filter><filter id="A" width="1.268" height="1.243" x="-.134" y="-.122"><feGaussianBlur stdDeviation="2.454"/></filter><filter id="B" width="1.327" height="1.218" x="-.164" y="-.109"><feGaussianBlur stdDeviation="2.454"/></filter><filter id="C" width="1.224" height="1.318" x="-.112" y="-.159"><feGaussianBlur stdDeviation="2.454"/></filter><filter id="D" width="1.24" height="1.693" x="-.12" y="-.347"><feGaussianBlur stdDeviation="2.454"/></filter><linearGradient id="E" x1="179" x2="242.5" y1="415" y2="435.5" gradientUnits="userSpaceOnUse" xlink:href="#h"/><linearGradient id="F" x1="16" x2="24" y1="413" y2="432" gradientUnits="userSpaceOnUse" xlink:href="#h"/><linearGradient id="G" x1="40.994" x2="58.993" y1="338.869" y2="366.869" gradientUnits="userSpaceOnUse" xlink:href="#h"/><linearGradient id="H" x1="83.053" x2="94.873" y1="307.194" y2="330.194" gradientUnits="userSpaceOnUse" xlink:href="#h"/><linearGradient id="I" x1="24.649" x2="43.602" y1="386.14" y2="412.352" gradientUnits="userSpaceOnUse" xlink:href="#h"/><linearGradient id="J" x1="122.625" x2="131.125" y1="287.602" y2="315.653" gradientUnits="userSpaceOnUse" xlink:href="#h"/><linearGradient id="K" x1="181.5" x2="238.5" y1="482.5" y2="523.5" gradientUnits="userSpaceOnUse" xlink:href="#h"/><linearGradient id="L" x1="178.5" x2="241" y1="438.5" y2="489.5" gradientUnits="userSpaceOnUse" xlink:href="#h"/><linearGradient id="M" x1="172.009" x2="220.006" y1="364.369" y2="370.369" gradientUnits="userSpaceOnUse" xlink:href="#h"/><linearGradient id="N" x1="174.127" x2="176.947" y1="304.694" y2="329.194" gradientUnits="userSpaceOnUse" xlink:href="#h"/><linearGradient id="O" x1="178.445" x2="230.851" y1="387.852" y2="415.852" gradientUnits="userSpaceOnUse" xlink:href="#h"/><linearGradient id="P" x1="15" x2="23" y1="482.5" y2="523.5" gradientUnits="userSpaceOnUse" xlink:href="#h"/><linearGradient id="Q" x1="118.476" x2="130.902" y1="60.962" y2="195.019" gradientUnits="userSpaceOnUse" xlink:href="#j"/><linearGradient id="R" x1="129.746" x2="143.328" y1="60.385" y2="195.019" gradientUnits="userSpaceOnUse" xlink:href="#i"/><linearGradient id="S" x1="-51.433" x2="-39.007" y1="60.962" y2="195.019" gradientUnits="userSpaceOnUse" xlink:href="#j"/><linearGradient id="T" x1="-40.163" x2="-26.581" y1="60.385" y2="195.019" gradientUnits="userSpaceOnUse" xlink:href="#i"/><linearGradient id="U" x1="58" x2="79.5" y1="12.051" y2="244" gradientTransform="matrix(.5779564 0 0 .5511991 -84.954305 58.15821)" gradientUnits="userSpaceOnUse" xlink:href="#d"/><linearGradient id="V" x1="77.5" x2="101" y1="11.051" y2="244" gradientTransform="matrix(.5779564 0 0 .5565506 -84.954304 57.32606)" gradientUnits="userSpaceOnUse" xlink:href="#i"/><linearGradient id="W" x1="58" x2="79.5" y1="12.051" y2="244" gradientTransform="matrix(.5779564 0 0 .5565507 84.954305 57.32606)" gradientUnits="userSpaceOnUse" xlink:href="#d"/><linearGradient id="X" x1="77.5" x2="101" y1="11.051" y2="244" gradientTransform="matrix(.5779564 0 0 .5565506 84.954304 57.32606)" gradientUnits="userSpaceOnUse" xlink:href="#i"/><linearGradient id="Y" x1="129.746" x2="143.328" y1="60.385" y2="195.019" gradientUnits="userSpaceOnUse"><stop offset="0" stop-color="#e2c89a"/><stop offset="1" stop-color="#bba072"/></linearGradient><linearGradient id="Z" x1="17" x2="28" y1="410" y2="489.5" gradientUnits="userSpaceOnUse" xlink:href="#h"/><linearGradient id="aa" x1="105.417" x2="123.258" y1="172.539" y2="193.779" gradientUnits="userSpaceOnUse" xlink:href="#e"/><linearGradient id="ab" x1="59.801" x2="54.254" y1="197.681" y2="240.441" gradientTransform="matrix(-.5779564 0 0 .5779564 241.00254 53.99746)" gradientUnits="userSpaceOnUse" xlink:href="#e"/><linearGradient id="ac" x1="135.941" x2="190.449" y1="74.871" y2="137.868" gradientUnits="userSpaceOnUse"><stop offset="0" stop-color="#c3a87a"/><stop offset="1" stop-color="#ceb791"/></linearGradient><linearGradient id="ad" x1="163.42" x2="163.42" y1="76" y2="144.892" gradientUnits="userSpaceOnUse"><stop offset="0" stop-color="#b3f8ff"/><stop offset="1" stop-color="#fff"/></linearGradient><clipPath id="ae"><path d="m9.2807765 209.98429 15.7902645-8.285h43.83813c1.368952 0 2.990173 1.44895 2.990173 2.86488v23.23763c0 1.28784-.434978 2.38479-1.018429 3.125l-8.684446 11.58432z"/></clipPath><filter id="af" width="1.612" height="1.203" x="-.306" y="-.102"><feGaussianBlur stdDeviation="1.693"/></filter><linearGradient id="ag" x1="66.25" x2="82.513" y1="209.688" y2="225.878" gradientUnits="userSpaceOnUse" xlink:href="#g"/><linearGradient id="ah" x1="66.25" x2="77.917" y1="209.688" y2="226.232" gradientUnits="userSpaceOnUse" xlink:href="#g"/><filter id="ai"><feGaussianBlur stdDeviation=".601"/></filter><linearGradient id="aj" x1="89.931" x2="106.266" y1="190.196" y2="195.019" gradientUnits="userSpaceOnUse" spreadMethod="reflect" xlink:href="#f"/><linearGradient id="ak" x1="8.611" x2="36.875" y1="235.656" y2="244" gradientTransform="matrix(-.5779564 0 0 .5779564 241.00253 53.99745)" gradientUnits="userSpaceOnUse" spreadMethod="reflect" xlink:href="#f"/><filter id="al"><feGaussianBlur stdDeviation=".246"/></filter><linearGradient id="am" x1="94.491" x2="105.981" y1="172.117" y2="174.212" gradientUnits="userSpaceOnUse" spreadMethod="reflect" xlink:href="#f"/><linearGradient id="an" x1="-43.5" x2="-23.619" y1="204.375" y2="208" gradientTransform="matrix(-.5779564 0 0 .5779564 206.32515 53.99745)" gradientUnits="userSpaceOnUse" spreadMethod="reflect" xlink:href="#f"/><clipPath id="ao"><path d="m-4.71875 155.28125-9.6875.15625v.0625h-25.59375c-1.662 0-3 1.338-3 3v46c0 1.662 1.338 3 3 3h30c.695352 0 1.336087-.23084 1.84375-.625v.03125l4.5-3.09375c.792279-.61851 1.224877-1.3744 1.28125-2.5625v-43.34375c0-1.29363-1.083352-2.625-2.34375-2.625z"/></clipPath><filter id="ap" width="1.115" height="3.712" x="-.057" y="-1.356"><feGaussianBlur stdDeviation=".971"/></filter><linearGradient id="aq" x1="89.867" x2="105.221" y1="140.953" y2="144.161" gradientUnits="userSpaceOnUse" spreadMethod="reflect" xlink:href="#c"/><linearGradient id="ar" x1="8.5" x2="35.065" y1="150.453" y2="156.004" gradientTransform="matrix(-.5779564 0 0 .5779564 241.00253 53.99745)" gradientUnits="userSpaceOnUse" spreadMethod="reflect" xlink:href="#c"/><linearGradient id="as" x1="110.144" x2="110.144" y1="129.019" y2="134.433" gradientUnits="userSpaceOnUse" xlink:href="#b"/><linearGradient id="at" x1="43.585" x2="43.585" y1="129.804" y2="139.172" gradientTransform="matrix(-.5779564 0 0 .5779564 241.00254 53.99746)" gradientUnits="userSpaceOnUse" xlink:href="#b"/><clipPath id="au"><path d="m63.10928 241.45056 8.662058-11.66726c13.798057-17.43491 43.663052-40.42737 56.617522-49.82852 9.90658-7.18928 38.18833-20.11492 41.4957-32.11484 10.51625 2.44608 6.79575 24.44828 7.76346 35.4108 1.4984 16.97429 8.87239 31.95167 20.31063 46.21562l8.83477 11.9842z"/></clipPath><filter id="av" width="1.178" height="1.606" x="-.089" y="-.303"><feGaussianBlur stdDeviation="4.554"/></filter><radialGradient id="aw" cx="55.888" cy="238.674" r="98.818" gradientTransform="matrix(2.1281542 .3712152 -.1781874 1.0215381 6.48732 -47.124421)" gradientUnits="userSpaceOnUse"><stop offset="0" stop-color="#92d84b"/><stop offset=".655" stop-color="#9ce463"/><stop offset="1" stop-color="#cbf0a8"/></radialGradient><clipPath id="ax"><path d="m51.265242 103.1228c39.694702 7.81967 107.458578 33.14008 118.619798 45.43053 20.46922 2.11455 31.46896 2.19053 66.64218 1.94563v90.15611h-197.636347z"/></clipPath><linearGradient id="ay" x1="157.685" x2="62.225" y1="143.958" y2="218.912" gradientUnits="userSpaceOnUse"><stop offset="0" stop-color="#97d766"/><stop offset="1" stop-color="#87de45" stop-opacity="0"/></linearGradient><filter id="az" width="1.406" height="1.451" x="-.203" y="-.225"><feGaussianBlur stdDeviation="10.195"/></filter><radialGradient id="aA" cx="201.195" cy="152.835" r="64.452" gradientTransform="matrix(1.3101069 -.2311015 .09384409 .5319982 -52.3378 121.81406)" gradientUnits="userSpaceOnUse"><stop offset="0" stop-color="#78cb7b"/><stop offset="1" stop-color="#aee6be"/></radialGradient><filter id="aB"><feGaussianBlur stdDeviation=".838"/></filter><filter id="aC"><feGaussianBlur stdDeviation=".397"/></filter><filter id="aD"><feGaussianBlur stdDeviation="1.086"/></filter><radialGradient id="aE" cx="129.75" cy="245.25" r="88.25" gradientTransform="matrix(1.130307 0 0 .184136 -16.907327 200.09065)" gradientUnits="userSpaceOnUse"><stop offset="0" stop-color="#fff6af"/><stop offset=".655" stop-color="#fff6af"/><stop offset="1" stop-color="#fff6af" stop-opacity="0"/></radialGradient><linearGradient id="aF" x1="119" x2="119" y1="263" y2="148.543" gradientUnits="userSpaceOnUse" xlink:href="#a"/><mask id="aG" maskUnits="userSpaceOnUse"><path fill="url(#aF)" d="m9.999991 148.54703h250v114.453h-250z"/></mask><linearGradient id="aH" x1="119" x2="119" y1="-148.547" y2="-263.004" gradientUnits="userSpaceOnUse" xlink:href="#a"/><mask id="aI" maskUnits="userSpaceOnUse"><path fill="url(#aH)" d="m9.999991-263h250v114.453h-250z" transform="scale(1 -1)"/></mask><filter id="aJ"><feGaussianBlur stdDeviation="1.604"/></filter><filter id="aK"><feGaussianBlur stdDeviation=".115"/></filter><filter id="aL"><feGaussianBlur stdDeviation=".11"/></filter><g transform="translate(-89 -58.102252)"><path fill="url(#ad)" fill-rule="evenodd" d="m111.31397 159.36976v-43.11542c9.04355-20.49509 18.25388-40.87662 52.31064-44.34144 36.49604 1.98373 46.79743 28.72355 51.90197 45.1588v42.29806z"/><path fill="url(#aA)" fill-rule="evenodd" d="m150.1978 149.8589c24.13641-17.53857 42.38808-24.67921 86.32055-34.24041l30.19085 59.5508-6.24638 28.82714c-66.05481-16.33279-155.79476-21.05362-110.26502-54.13753z" filter="url(#aD)" transform="matrix(.5779564 0 0 .5779564 69.349481 51.68563)"/><path fill="url(#aw)" fill-rule="evenodd" d="m78.26524 107.1228c39.6947 7.81967 107.45858 33.14008 118.6198 45.43053 20.46922 2.11455 31.46896 2.19053 66.64218 1.94563v90.15611h-197.63635z" filter="url(#aB)" transform="matrix(.5779564 0 0 .5779564 69.349481 51.68563)"/><g filter="url(#aJ)" mask="url(#aI)" transform="matrix(.5779564 0 0 .5779564 84.954305 53.99746)"><path fill="#fff8af" fill-rule="evenodd" d="m63.10928 242.15767 8.662058-11.66726c13.798057-17.43491 43.663052-40.42737 56.617522-49.82852 9.90658-7.18928 38.18833-20.11492 41.4957-32.11484 10.51625 2.44608 6.79575 24.44828 7.76346 35.4108 1.4984 16.97429 8.87239 31.95167 20.31063 46.21562l8.83477 11.9842z"/><path fill="url(#aE)" d="m218 245.25a88.25 16.25 0 1 1 -176.5 0 88.25 16.25 0 1 1 176.5 0z" transform="matrix(1.1695201 0 0 1.1846154 -16.745242 -46.776923)"/><path fill="#f3cf48" d="m205.76808 185.50073a61.518291 18.031223 0 1 1 -123.036585 0 61.518291 18.031223 0 1 1 123.036585 0z" clip-path="url(#au)" filter="url(#av)" opacity=".075" transform="matrix(.9959362 0 0 1.1663781 .336207 -29.656146)"/></g><g mask="url(#aG)" transform="matrix(.5779564 0 0 .5779564 84.954305 53.99746)"><path fill="#fff6af" fill-rule="evenodd" d="m63.10928 242.15767 8.662058-11.66726c13.798057-17.43491 43.663052-40.42737 56.617522-49.82852 9.90658-7.18928 38.18833-20.11492 41.4957-32.11484 10.51625 2.44608 6.79575 24.44828 7.76346 35.4108 1.4984 16.97429 8.87239 31.95167 20.31063 46.21562l8.83477 11.9842z"/><path fill="url(#aE)" d="m218 245.25a88.25 16.25 0 1 1 -176.5 0 88.25 16.25 0 1 1 176.5 0z" transform="matrix(1.1695201 0 0 1.1846154 -16.745242 -46.776923)"/><path fill="#f3cf48" d="m205.76808 185.50073a61.518291 18.031223 0 1 1 -123.036585 0 61.518291 18.031223 0 1 1 123.036585 0z" clip-path="url(#au)" filter="url(#av)" opacity=".075" transform="matrix(.9959362 0 0 1.1663781 .336207 -29.656146)"/></g><path fill="#85e239" fill-rule="evenodd" d="m196.875 152.5625c10.51624 2.44607 6.81354 24.44373 7.78125 35.40625 1.49839 16.97428 8.87426 31.9548 20.3125 46.21875l7.71875 10.46875h30.84375v-90.15625" filter="url(#aC)" opacity=".332" transform="matrix(.5779564 0 0 .5779564 69.349481 51.68563)"/><path fill="url(#ay)" fill-rule="evenodd" d="m50.911688 204.94618c72.779012-42.71761 119.596962-56.48194 110.959412-72.80256l9.66295 18.8198-101.530479 92.16652z" clip-path="url(#ax)" filter="url(#az)" opacity=".409" transform="matrix(.5779564 0 0 .5779564 84.954305 53.99746)"/><path fill="#282d30" d="m24.3125 228.8125-15.3125 13.0625c0 1.662 1.338 2.99998 3 3h49.5c1.147627 0 2.120189-.65167 2.625-1.59375l8.5625-12.15625c.966114-1.58514-.030774-2.3125-1.53125-2.3125z" filter="url(#ai)" opacity=".72" transform="matrix(.5711909 0 0 .5779564 85.015193 53.99746)"/><path fill="#cdb690" fill-rule="evenodd" stroke="#a6926e" stroke-linecap="round" stroke-linejoin="round" stroke-width=".578" d="m206.42029 143.47881c-.88399 0-1.37268-.47487-1.32355-1.08135v-7.11998c0-.57357.48639-.89686 1.23387-.89686l3.58025-.3251 1.6606 9.90525z"/><path fill="#282d30" d="m24.3125 228.8125-15.3125 13.0625c0 1.662 1.338 2.99998 3 3h49.5c1.147627 0 2.120189-.65167 2.625-1.59375l8.5625-12.15625c.966114-1.58514-.030774-2.3125-1.53125-2.3125z" filter="url(#ai)" opacity=".72" transform="matrix(-.5711909 0 0 .5779564 241.24817 53.99746)"/><path fill="url(#ab)" fill-rule="evenodd" d="m235.63866 175.35923-9.12609-4.78837h-25.33653c-.79119 0-1.72818.83743-1.72818 1.65578v13.43033c0 .74432.25139 1.37831.5886 1.80612l5.01923 6.69523z"/><path fill="#282d30" d="m34.34375 199.9375-16.84375 5.5625c0 1.662 1.338 3 3 3h30c.695351 0 1.336087-.23084 1.84375-.625v.03125l4.5-3.09375c.792279-.61851 1.224877-1.3744 1.28125-2.5625z" filter="url(#al)" opacity=".528" transform="matrix(-.5779564 0 0 .5779564 241.20688 53.99746)"/><path fill="url(#ah)" fill-rule="evenodd" d="m58.625 216.5 15.25-14v37.25l-14.25 10.625z" clip-path="url(#ae)" filter="url(#af)" opacity=".481" transform="matrix(-.5779564 0 0 .5779564 241.00254 53.99746)"/><path fill="none" stroke="#aa9876" stroke-linecap="round" stroke-linejoin="round" stroke-width=".578" d="m235.63866 175.35923-9.12609-4.78837h-25.33653c-.79119 0-1.72818.83743-1.72818 1.65578v13.43033c0 .74432.25139 1.37831.5886 1.80612l5.01923 6.69523z"/><path fill="#c0ab87" fill-rule="evenodd" stroke="#a6926e" stroke-linecap="round" stroke-linejoin="round" stroke-width=".578" d="m208.44067 171.78482c-.45791-.35747-.71272-.79434-.74529-1.48101v-25.03863c0-.74766.62528-1.51417 1.35374-1.51417l5.59376.08902-3.61223 29.73229z"/><path fill="url(#ac)" fill-rule="evenodd" stroke="#a6926e" stroke-linecap="round" stroke-linejoin="round" stroke-width=".578" d="m125.46544 85.55026-17.12196 36.68218 5.27385 11.79392 3.03427.10837c.88761.07687 1.5352-.39984 1.5352-1.39071.33367-8.53485 1.40835-13.15815 3.64835-19.65052.36075-.62485-.08102-1.49158-.19867-1.60744.1623.05572.77207-.07439 1.08367-.61408 2.39951-6.77828 6.06272-11.57056 10.34903-16.32727.4065-.36719.64975-.88407.30704-1.40877.4257.45501.86593.17981 1.44489-.18061 4.98132-5.24554 9.72063-7.39278 15.37003-9.69883.55406-.25936 1.22218-.43875 1.0656-1.39071.29179.67888.78197.65795 1.39071.57796 3.9918-.90596 7.13887-2.14975 10.29485-2.05897s6.95332 1.21717 10.36709 2.05897c.60875.07999 1.09893.10092 1.39071-.57796-.15657.95196.51155 1.13135 1.06561 1.39071 5.6494 2.30605 10.3887 4.45329 15.37003 9.69883.57896.36042 1.01918.63562 1.44489.18061-.34272.5247-.09946 1.04158.30704 1.40877 4.2863 4.75671 7.94952 9.54899 10.34903 16.32727.31159.53969.92137.6698 1.08367.61408-.11765.11586-.55943.98259-.19867 1.60744 2.23999 6.49237 3.31467 11.11567 3.64835 19.65052 0 .99087.64759 1.46758 1.53519 1.39071l3.03428-.10837 5.27385-11.79392-17.12196-36.68218-37.51299-13.31105z"/><path fill="url(#Q)" d="m219.39164 103.15886c-1.97481-5.61457-8.67478-16.84145-13.65085-20.80555-.68968-.57461-1.64614-.74931-2.40535-.17499l-8.42272 7.78429c-.70813.70203-1.02516 1.67373-.33549 2.2228 4.95707 4.58193 9.04599 12.17021 11.25288 17.07423.40871.75341 1.56951.64713 2.43089.27715l10.82069-4.02743c.70813-.4466.61648-1.57156.30995-2.3505z"/><path fill="url(#M)" d="m207.125 325.1875c-1.39457-.11543-2.83681.23667-4.09375 1.1875-.08653.05811-.16998.1207-.25.1875l-14.5625 13.46875c-.02114.02053-.04197.04136-.0625.0625-.94511.93697-1.72575 2.06691-2.03125 3.5625-.29277 1.43327.24803 3.38386 1.5625 4.5625l-.0625.0625c7.96834 7.36533 15.05664 20.28586 18.78125 28.5625.02834.07413.05962.1471.09375.21875.9494 1.75012 2.90031 2.46407 4.3125 2.53125 1.36281.06483 2.52587-.27364 3.59375-.71875v.03125l.125-.0625 18.59375-6.90625c.19683-.07379.38537-.16805.5625-.28125 1.62334-1.02381 2.22808-2.81217 2.3125-4.15625.08212-1.30743-.17307-2.42247-.5625-3.4375-3.70623-10.53721-14.85134-29.58261-24.59375-37.34375-1.00577-.83796-2.32418-1.41582-3.71875-1.53125zm-.46875 5.96875c.09039-.07209.05263-.07587.40625.21875.02071.01066.04155.02108.0625.03125 7.47713 5.95654 19.52876 25.76446 22.65625 34.65625.0099.03142.02032.06267.03125.09375.07138.1814.09322.35969.125.5625l-17.625 6.5625c-.05266.01937-.10476.04021-.15625.0625-.25313.10872-.45904.11861-.6875.15625-3.89085-8.50392-10.55892-20.78546-19.1875-29.03125.04963-.06804.02372-.05557.09375-.125z" clip-path="url(#s)" filter="url(#A)" opacity=".24" transform="matrix(.5779564 0 0 .5779564 84.954305 -107.83034)"/><path fill="url(#Q)" d="m202.85904 79.48482c-3.52391-3.77107-14.33325-11.12004-23.1265-13.47912-.99648-.24821-1.60647.31268-1.73962 1.00677l-2.42135 11.43563c-.20756.95462-.10828 1.88802.69112 2.17445 7.28169 2.66935 13.28614 6.90909 16.48642 10.00716.53937.52191 1.69357-.11694 2.32709-.75134l8.37177-7.75935c.5569-.60886.08284-1.91531-.58893-2.6342z"/><rect width="32.077" height="19.651" x="-236.668" y="175.079" fill="url(#S)" rx="1.734" transform="scale(-1 1)"/><path fill="url(#K)" d="m259.5 486.5c3.27211 0 6 2.72789 6 6v28c0 3.27211-2.72789 6-6 6h-49.5c-3.27211 0-6-2.72789-6-6v-28c0-3.27211 2.72789-6 6-6zm0 6h-49.5v28h49.5z" clip-path="url(#w)" filter="url(#x)" opacity=".24" transform="matrix(.5779564 0 0 .5779564 84.954305 -107.83034)"/><path fill="url(#aa)" fill-rule="evenodd" d="m90.31819 175.35923 9.12608-4.78837h25.33653c.7912 0 1.72819.83743 1.72819 1.65578v13.43033c0 .74432-.25139 1.37831-.5886 1.80612l-5.01923 6.69523z"/><path fill="url(#ag)" fill-rule="evenodd" d="m58.625 216.5 15.25-14v37.25l-14.25 10.625z" clip-path="url(#ae)" filter="url(#af)" transform="matrix(.5779564 0 0 .5779564 84.954305 53.99746)"/><path fill="none" stroke="#aa9876" stroke-linecap="round" stroke-linejoin="round" stroke-width=".578" d="m90.31819 175.35923 9.12608-4.78837h25.33653c.7912 0 1.72819.83743 1.72819 1.65578v13.43033c0 .74432-.25139 1.37831-.5886 1.80612l-5.01923 6.69523z"/><path fill="#282d30" d="m61.34375 203.9375-16.84375 5.5625c0 1.662 1.338 3 3 3h30c.69535 0 1.33609-.23084 1.84375-.625v.03125l4.5-3.09375c.79228-.61851 1.22488-1.3744 1.28125-2.5625z" filter="url(#al)" opacity=".491" transform="matrix(.5779564 0 0 .5779564 69.349481 51.68563)"/><path fill="#bca276" fill-rule="evenodd" stroke="#a6926e" stroke-linecap="round" stroke-linejoin="round" stroke-width=".578" d="m117.51618 171.78482c.4579-.35747.71271-.79434.74529-1.48101v-25.03863c0-.74766-.62528-1.51417-1.35374-1.51417l-5.59376.08902 3.61223 29.73229z"/><rect width="32.077" height="19.651" x="89.289" y="175.079" fill="url(#Q)" rx="1.734"/><path fill="url(#P)" d="m10.5 486.5c-3.2721083 0-6 2.72789-6 6v28c0 3.27211 2.7278917 6 6 6h49.5c3.272108 0 6-2.72789 6-6v-28c0-3.27211-2.727892-6-6-6zm0 6h49.5v28h-49.5z" clip-path="url(#k)" filter="url(#x)" opacity=".24" transform="matrix(.5779564 0 0 .5779564 84.954305 -107.83034)"/><path fill="#c3a87a" fill-rule="evenodd" stroke="#a6926e" stroke-linecap="round" stroke-linejoin="round" stroke-width=".578" d="m119.53655 143.47881c.88399 0 1.37269-.47487 1.32355-1.08135v-7.11998c0-.57357-.48638-.89686-1.23386-.89686l-3.58025-.3251-1.66061 9.90525z"/><rect width="20.806" height="30.054" x="94.78" y="143.87" fill="url(#W)" rx="1.734"/><path fill="url(#Z)" d="m20 432.5c-3.272108 0-6 2.72789-6 6v48c0 3.27211 2.727888 6.00001 6 6h30c3.272108 0 6-2.72789 6-6v-48c0-3.27211-2.727892-6-6-6zm0 6h30v48h-30z" clip-path="url(#l)" filter="url(#B)" opacity=".24" transform="matrix(.5779564 0 0 .5565507 84.954305 -98.50812)"/><rect width="28.32" height="9.825" x="89.578" y="134.044" fill="url(#Q)" rx="1.734"/><path fill="url(#F)" d="m11 415.5c-3.2721083 0-6 2.72789-6 6v11c0 3.27211 2.7278917 6 6 6h43c3.272108 0 6-2.72789 6-6v-11c0-3.27211-2.727892-6-6-6zm0 6h43v11h-43z" clip-path="url(#m)" filter="url(#D)" opacity=".24" transform="matrix(.5779564 0 0 .5779564 84.954305 -107.83034)"/><path fill="url(#Q)" d="m106.56521 103.15886c1.9748-5.61457 8.67478-16.84145 13.65085-20.80555.68967-.57461 1.64614-.74931 2.40535-.17499l8.42272 7.78429c.70812.70203 1.02516 1.67373.33549 2.2228-4.95707 4.58193-9.04599 12.17021-11.25288 17.07423-.40871.75341-1.56951.64713-2.43089.27715l-10.8207-4.02743c-.70812-.4466-.61647-1.57156-.30994-2.3505z"/><path fill="url(#Q)" d="m123.09781 79.48482c3.52391-3.77107 14.33325-11.12004 23.1265-13.47912.99648-.24821 1.60647.31268 1.73961 1.00677l2.42135 11.43563c.20756.95462.10828 1.88802-.69111 2.17445-7.2817 2.66935-13.28614 6.90909-16.48642 10.00716-.53937.52191-1.69357-.11694-2.3271-.75134l-8.37177-7.75935c-.55689-.60886-.08283-1.91531.58894-2.6342z"/><path fill="url(#H)" d="m107.625 297.75c-.76784-.11154-1.58592-.06376-2.34375.125-.02083-.00022-.04167-.00022-.0625 0-16.126114 4.32635-34.547055 16.84721-41.40625 24.1875-.959773 1.0271-1.653608 2.1938-2.03125 3.59375s-.52038 3.40316.96875 5.03125c.060355.0546.122907.10673.1875.15625l14.5 13.4375c.835974.83714 1.732287 1.49376 3 2 .633857.25312 1.350408.45415 2.25.4375s2.037644-.37725 2.875-1.1875c5.172645-5.00744 15.3644-12.20755 27.5-16.65625 1.62859-.58354 2.77872-2.13843 3.125-3.5s.21254-2.59749-.03125-3.71875l-4.1875-19.75c-.24671-1.28611-.96666-2.53961-2.21875-3.375-.62605-.41769-1.35716-.66971-2.125-.78125zm-1.375 6.125 4.03125 19.0625c.07298.33564.03212.42796.03125.59375-12.18879 4.58588-22.079259 11.4048-28 16.90625-.257963-.15968-.544739-.2945-.71875-.46875-.030556-.03194-.061813-.06319-.09375-.09375l-13.8125-12.8125c.123087-.31306.327761-.72193.5-.90625 5.270626-5.6403 23.824142-18.27566 38.0625-22.28125z" clip-path="url(#p)" filter="url(#z)" opacity=".24" transform="matrix(.5779564 0 0 .5779564 84.954305 -107.83034)"/><path fill="url(#Q)" d="m100.93438 131.88989c.21854-9.83605 1.65194-19.00228 4.10486-24.80426.2887-.89102 1.2655-1.73968 1.96104-1.53985l10.85061 4.0115c.95096.302 1.78629 1.2369 1.4465 2.10238-2.07637 6.29635-3.64661 14.09337-3.64661 20.83069 0 1.14893-1.08646 1.59094-2.01212 1.59094h-11.23224c-.94794-.254-1.45424-1.14713-1.47204-2.1914z"/><path fill="url(#I)" d="m38.96875 366.3125c-2.043231-.58702-3.60001.30335-4.6875 1.1875-1.01733.82711-1.7669 1.87252-2.25 3.1875h-.03125c-.023627.05589-.038987.13132-.0625.1875-.007763.02319-.023678.03913-.03125.0625-4.461024 10.69589-6.869024 26.63452-7.25 43.78125-.000488.03125-.000488.0625 0 .09375.046827 2.74695 1.669592 5.83085 4.75 6.65625.255172.06541.517847.09693.78125.09375h19.4375c1.278297 0 2.667247-.2506 4-1.125s2.499998-2.68541 2.5-4.625c0-11.13728 2.615908-24.3413 6.09375-34.9375.016776-.05111.045685-.10526.0625-.15625l-.0625-.03125c.623058-1.81281.083322-3.71385-.8125-4.90625-.891865-1.18713-2.074804-1.97307-3.4375-2.4375v-.03125l-18.78125-6.9375c-.0721-.02359-.145069-.04444-.21875-.0625zm-1.03125 6 17.9375 6.625c.041176.0218.082854.04264.125.0625.157798.05011.309916.17474.4375.28125-3.580289 10.98523-6.231145 24.29906-6.28125 36.1875-.11559.03877-.281651.09375-.53125.09375h-18.6875c-.158103-.04915-.26347-.10172-.28125-.8125-.000613-.02451.000443-.00525 0-.03125.382538-16.72065 2.887761-32.33026 6.84375-41.6875.034944-.0819.066225-.16532.09375-.25.022355-.06899.193736-.29087.34375-.46875z" clip-path="url(#n)" filter="url(#y)" opacity=".24" transform="matrix(.5779564 0 0 .5779564 84.954305 -107.83034)"/><path fill="none" stroke="#a6926e" stroke-linecap="round" stroke-linejoin="round" stroke-width=".578" d="m121.72678 111.468-3.07039-1.6255"/><path fill="none" stroke="url(#R)" stroke-linecap="square" stroke-width=".578" d="m100.93438 131.88989c.21854-9.83605 1.65194-19.00228 4.10486-24.80426.2887-.89102 1.2655-1.73968 1.96104-1.53985l10.85061 4.0115c.95096.302 1.78629 1.2369 1.4465 2.10238-2.07637 6.29635-3.64661 14.09337-3.64661 20.83069 0 1.14893-1.08646 1.59094-2.01212 1.59094h-11.23224c-.94794-.254-1.45424-1.14713-1.47204-2.1914z"/><path fill="url(#Q)" d="m162.97842 58.39123c6.29927 0 13.12309 4.88732 15.09912 7.80286l-2.60081 11.88827c-.21673.89043-.84555 2.06983-1.73387 1.67248-3.37583-1.43826-9.01778-2.3453-10.7645-2.3453-1.74073 0-7.34046 1.1622-10.90886 2.3453-.66902.31271-1.55508-.77147-1.73387-1.67248l-2.60081-12.02764c2.12492-2.91118 8.84222-7.66349 15.2436-7.66349z"/><path fill="url(#J)" d="m135 284.59375c-6.28033 0-12.36767 2.25873-17.4375 5.125s-9.10749 6.26847-11.375 9.375c-.5026.6939-.68455 1.56957-.5 2.40625l4.5 20.8125c.29413 1.48219.93921 2.60586 1.9375 3.65625.49915.5252 1.0965 1.02722 1.96875 1.375.77971.31088 1.90678.35201 2.9375 0l.03125.0625c2.92068-.96835 6.83215-1.94804 10.3125-2.6875s6.78673-1.21875 7.625-1.21875c1.98368 0 12.28696 1.61812 17.4375 3.8125 1.00962.4516 2.28341.49057 3.28125.125s1.67013-.97574 2.15625-1.5625c.97223-1.17353 1.38306-2.37761 1.65625-3.5.01066-.02071.02108-.04155.03125-.0625l4.5-20.5625c.17511-.81245.00538-1.66115-.46875-2.34375-2.17251-3.20545-6.15685-6.60115-11.21875-9.53125s-11.14954-5.28126-17.375-5.28125zm0 6c4.67374-.00001 9.95394 1.9096 14.375 4.46875 3.9222 2.27038 6.93861 5.0016 8.5 6.90625l-4.1875 19.0625c-.03522.14468-.09339.19619-.15625.34375-6.4137-2.46938-14.71615-3.875-18.53125-3.875-2.17361-.00001-5.21442.566-8.875 1.34375-3.30482.70216-6.81123 1.63063-9.875 2.59375-.07521-.14553-.18051-.30851-.1875-.34375.00022-.02083.00022-.04167 0-.0625l-4.15625-19.25c1.68526-1.95071 4.68193-4.60092 8.59375-6.8125 4.42955-2.50429 9.70444-4.375 14.5-4.375z" clip-path="url(#q)" filter="url(#C)" opacity=".24" transform="matrix(.5779564 0 0 .5779564 84.954305 -107.83034)"/><rect width="20.806" height="29.765" x="-231.177" y="143.87" fill="url(#U)" rx="1.734" transform="scale(-1 1)"/><path fill="url(#L)" d="m250 432.5c3.27211 0 6 2.72789 6 6v48c0 3.27211-2.72789 6.00001-6 6h-30c-3.27211 0-6-2.72789-6-6v-48c0-3.27211 2.72789-6 6-6zm0 6h-30v48h30z" clip-path="url(#v)" filter="url(#B)" opacity=".24" transform="matrix(.5779564 0 0 .5568851 84.954305 -98.65376)"/><rect width="28.32" height="9.825" x="-236.379" y="134.044" fill="url(#S)" rx="1.734" transform="scale(-1 1)"/><path fill="url(#E)" d="m259 415.5c3.27211 0 6 2.72789 6 6v11c0 3.27211-2.72789 6-6 6h-43c-3.27211 0-6-2.72789-6-6v-11c0-3.27211 2.72789-6 6-6zm0 6h-43v11h43z" clip-path="url(#u)" filter="url(#D)" opacity=".24" transform="matrix(.5779564 0 0 .5779564 84.954305 -107.83034)"/><path fill="url(#Q)" d="m225.02247 131.88989c-.21854-9.83605-1.65195-19.00228-4.10486-24.80426-.28871-.89102-1.2655-1.73968-1.96104-1.53985l-10.85061 4.0115c-.95096.302-1.78629 1.2369-1.4465 2.10238 2.07637 6.29635 3.6466 14.09337 3.6466 20.83069 0 1.14893 1.08647 1.59094 2.01213 1.59094h11.23224c.94794-.254 1.45424-1.14713 1.47204-2.1914z"/><path fill="url(#O)" d="m231.03125 366.3125c-.07368.01806-.14665.03891-.21875.0625l-18.78125 6.9375v.03125c-1.36269.46443-2.54564 1.25037-3.4375 2.4375-.89582 1.1924-1.43555 3.09344-.8125 4.90625l-.0625.03125c.01682.05099.04572.10514.0625.15625 3.47785 10.5962 6.09375 23.80022 6.09375 34.9375.00001 1.93959 1.16725 3.7506 2.5 4.625s2.7217 1.125 4 1.125h19.4375c.2634.00318.52608-.02834.78125-.09375 3.08041-.8254 4.70317-3.90931 4.75-6.65625.00049-.03125.00049-.0625 0-.09375-.38097-17.14673-2.78898-33.08537-7.25-43.78125-.00757-.02337-.02349-.03931-.03125-.0625-.02351-.05618-.03887-.13161-.0625-.1875h-.03125c-.4831-1.31497-1.23267-2.36039-2.25-3.1875-1.08749-.88415-2.64427-1.77452-4.6875-1.1875zm1.03125 6c.15002.17789.32139.39975.34375.46875.02752.08468.05881.1681.09375.25 3.9585 9.36319 6.4637 24.98606 6.84375 41.71875-.01778.71079-.12315.76335-.28125.8125h-18.6875c-.2496 0-.41566-.05498-.53125-.09375-.05011-11.88844-2.70095-25.20227-6.28125-36.1875.12758-.10651.27971-.23114.4375-.28125.04215-.01986.08382-.0407.125-.0625z" clip-path="url(#t)" filter="url(#y)" opacity=".24" transform="matrix(.5779564 0 0 .5779564 84.954305 -107.83034)"/><path fill="url(#G)" d="m62.84375 325.21875c-1.407324.12583-2.744231.69329-3.75 1.53125-9.718525 7.74211-20.766821 26.66605-24.5 37.21875-.003512.00892.003491.02231 0 .03125-.00649.01838-.024805.04418-.03125.0625-.389435 1.01503-.644622 2.13007-.5625 3.4375.084424 1.34407.689159 3.13244 2.3125 4.15625.17713.1132.365665.20746.5625.28125l18.59375 6.90625.125.0625v-.03125c1.067881.44511 2.230943.78358 3.59375.71875 1.412193-.06718 3.363099-.78112 4.3125-2.53125.034131-.07165.065405-.14462.09375-.21875 3.724613-8.27664 10.812909-21.19717 18.78125-28.5625l-.0625-.0625c1.314472-1.17864 1.855267-3.12923 1.5625-4.5625-.305495-1.49559-1.086139-2.62553-2.03125-3.5625-.020525-.02114-.041361-.04197-.0625-.0625l-14.5625-13.46875c-.08002-.0668-.163466-.12939-.25-.1875-1.256938-.95083-2.717676-1.28208-4.125-1.15625zm.5 5.9375 14.375 13.28125c.02465.02444.010238.00739.03125.03125-8.635756 8.24572-15.325663 20.52243-19.21875 29.03125-.228464-.03764-.434374-.04753-.6875-.15625-.051489-.02229-.103593-.04313-.15625-.0625l-17.625-6.5625c.031782-.20281.053616-.3811.125-.5625.010931-.03108.021349-.06233.03125-.09375 3.127505-8.89179 15.17911-28.69971 22.65625-34.65625.020954-.01017.041789-.02059.0625-.03125.353621-.29462.315852-.29084.40625-.21875z" clip-path="url(#o)" filter="url(#A)" opacity=".24" transform="matrix(.5779564 0 0 .5779564 84.954305 -107.83034)"/><path fill="url(#N)" d="m162.375 297.75c-.76785.11154-1.49895.36355-2.125.78125-1.25209.83539-1.97204 2.1514-2.21875 3.4375l-4.1875 19.71875c-.24379 1.12126-.37753 2.32593-.03125 3.6875s1.52766 2.94771 3.15625 3.53125c12.1356 4.4487 22.2961 11.61756 27.46875 16.625.83736.81025 1.97541 1.17085 2.875 1.1875s1.61614-.18438 2.25-.4375c1.26771-.50624 2.25778-1.25661 3.09375-2.09375l14.40625-13.34375c.06459-.04952.12715-.10165.1875-.15625 1.48913-1.62809 1.34639-3.6313.96875-5.03125s-1.07148-2.56665-2.03125-3.59375c-6.8592-7.34028-25.28014-19.86115-41.40625-24.1875-.02083-.00022-.04167-.00022-.0625 0-.75783-.18876-1.5759-.23654-2.34375-.125zm1.375 6.09375c14.2424 3.99279 32.78693 16.66693 38.0625 22.3125.17224.18432.37691.59319.5.90625l-13.8125 12.8125c-.03194.03056-.06319.06181-.09375.09375-.17401.17425-.46079.30907-.71875.46875-5.92071-5.50141-15.81123-12.32038-28-16.90625-.00087-.16579-.04173-.2581.03125-.59375z" clip-path="url(#r)" filter="url(#z)" opacity=".24" transform="matrix(.5779564 0 0 .5779564 84.954305 -107.83034)"/><rect width="32.077" height="19.651" x="89.289" y="175.079" fill="none" stroke="url(#Y)" stroke-linecap="square" stroke-width=".578" rx="1.734"/><rect width="20.806" height="30.054" x="94.78" y="143.87" fill="none" stroke="url(#X)" stroke-linecap="square" stroke-width=".578" rx="1.734"/><rect width="32.077" height="19.651" x="-236.668" y="175.079" fill="none" stroke="url(#T)" stroke-linecap="square" stroke-width=".578" rx="1.734" transform="scale(-1 1)"/><path fill="#282d30" fill-rule="evenodd" d="m-7.75 157h-50.375l.875-16.375h61.5l-.375 14.75z" clip-path="url(#ao)" filter="url(#ap)" opacity=".467" transform="matrix(.5779564 0 0 .5779564 119.63169 53.99746)"/><g stroke-width=".578"><rect width="28.32" height="9.825" x="89.578" y="134.044" fill="none" stroke="url(#R)" stroke-linecap="square" rx="1.734"/><path fill="none" stroke="#a6926e" stroke-linecap="round" stroke-linejoin="round" d="m133.30397 93.0637-1.51713-2.23958"/><path fill="none" stroke="url(#R)" stroke-linecap="square" d="m106.56521 103.15886c1.9748-5.61457 8.67478-16.84145 13.65085-20.80555.68967-.57461 1.64614-.74931 2.40535-.17499l8.42272 7.78429c.70812.70203 1.02516 1.67373.33549 2.2228-4.95707 4.58193-9.04599 12.17021-11.25288 17.07423-.40871.75341-1.56951.64713-2.43089.27715l-10.8207-4.02743c-.70812-.4466-.61647-1.57156-.30994-2.3505z"/><path fill="none" stroke="#a6926e" stroke-linecap="round" stroke-linejoin="round" d="m151.27481 81.84773-.68633-2.70917"/><path fill="none" stroke="url(#R)" stroke-linecap="square" d="m123.09781 79.48482c3.52391-3.77107 14.33325-11.12004 23.1265-13.47912.99648-.24821 1.60647.31268 1.73961 1.00677l2.42135 11.43563c.20756.95462.10828 1.88802-.69111 2.17445-7.2817 2.66935-13.28614 6.90909-16.48642 10.00716-.53937.52191-1.69357-.11694-2.3271-.75134l-8.37177-7.75935c-.55689-.60886-.08283-1.91531.58894-2.6342z"/><path fill="none" stroke="#a6926e" stroke-linecap="round" stroke-linejoin="round" d="m204.19909 111.468 3.07039-1.6255"/><path fill="none" stroke="#a6926e" stroke-linecap="round" stroke-linejoin="round" d="m192.6219 93.0637 1.51713-2.23958"/><path fill="none" stroke="#a6926e" stroke-linecap="round" stroke-linejoin="round" d="m174.65106 81.84773.68633-2.70917"/><path fill="none" stroke="url(#R)" stroke-linecap="square" d="m162.97842 58.39123c6.29927 0 13.12309 4.88732 15.09912 7.80286l-2.60081 11.88827c-.21673.89043-.84555 2.06983-1.73387 1.67248-3.37583-1.43826-9.01778-2.3453-10.7645-2.3453-1.74073 0-7.34046 1.1622-10.90886 2.3453-.66902.31271-1.55508-.77147-1.73387-1.67248l-2.60081-12.02764c2.12492-2.91118 8.84222-7.66349 15.2436-7.66349z"/><path fill="none" stroke="url(#R)" stroke-linecap="square" d="m202.85904 79.48482c-3.52391-3.77107-14.33325-11.12004-23.1265-13.47912-.99648-.24821-1.60647.31268-1.73962 1.00677l-2.42135 11.43563c-.20756.95462-.10828 1.88802.69112 2.17445 7.28169 2.66935 13.28614 6.90909 16.48642 10.00716.53937.52191 1.69357-.11694 2.32709-.75134l8.37177-7.75935c.5569-.60886.08284-1.91531-.58893-2.6342z"/><path fill="none" stroke="url(#R)" stroke-linecap="square" d="m225.02247 131.88989c-.21854-9.83605-1.65195-19.00228-4.10486-24.80426-.28871-.89102-1.2655-1.73968-1.96104-1.53985l-10.85061 4.0115c-.95096.302-1.78629 1.2369-1.4465 2.10238 2.07637 6.29635 3.6466 14.09337 3.6466 20.83069 0 1.14893 1.08647 1.59094 2.01213 1.59094h11.23224c.94794-.254 1.45424-1.14713 1.47204-2.1914z"/></g><path fill="url(#at)" fill-rule="evenodd" d="m218.19132 105.50782c1.27637.03613 2.3678.43402 2.98009 1.40877.0078.01742.01384.03557.01806.05419 2.47981 5.86558 3.89887 15.06435 4.11794 24.92437-.01931 1.13317-.59367 2.16531-1.67968 2.45631-.0232.00911-.04749.01519-.07225.01806h-11.23403c-.14527 0-.28735-.01588-.43346-.03612h-.05419l-2.5105.09031c-.50097.04339-.9568-.06727-1.3004-.36122-.3436-.29396-.54183-.76008-.54183-1.31847-.3319-8.48947-1.39028-13.0572-3.61223-19.50603-.01019-.01765-.00886-.03637-.01806-.05418-.20271-.39264-.17756-.81883-.09031-1.15591.04561-.17619.10218-.32771.16255-.45153.06038-.12383.10534-.19707.19868-.28898.01095-.01309.02303-.02518.03612-.03612 1.41438-1.0049 4.931-3.10962 8.45261-4.47917 1.76081-.68477 3.50972-1.19004 5.021-1.26428.18891-.00928.37755-.00516.55989 0z" opacity=".5"/><path fill="none" stroke="url(#R)" stroke-linecap="square" stroke-width=".578" d="m219.39164 103.15886c-1.97481-5.61457-8.67478-16.84145-13.65085-20.80555-.68968-.57461-1.64614-.74931-2.40535-.17499l-8.42272 7.78429c-.70813.70203-1.02516 1.67373-.33549 2.2228 4.95707 4.58193 9.04599 12.17021 11.25288 17.07423.40871.75341 1.56951.64713 2.43089.27715l10.82069-4.02743c.70813-.4466.61648-1.57156.30995-2.3505z"/><rect width="28.32" height="9.825" x="-236.379" y="134.044" fill="none" stroke="url(#T)" stroke-linecap="square" stroke-width=".578" rx="1.734" transform="scale(-1 1)"/><rect width="20.806" height="30.054" x="-231.177" y="143.87" fill="none" stroke="url(#V)" stroke-linecap="square" stroke-width=".578" rx="1.734" transform="scale(-1 1)"/><path fill="none" stroke="url(#aj)" stroke-linecap="round" stroke-linejoin="round" stroke-width=".578" d="m89.288978 192.99598c0 .96056.773302 1.73387 1.733872 1.73387h28.60884c.66328 0 1.22538-.37664 1.51714-.92112l4.76814-6.33946c.33721-.42781.59602-1.06179.59602-1.80611"/><path fill="none" stroke="url(#ak)" stroke-linecap="round" stroke-linejoin="round" stroke-width=".578" d="m236.66787 192.99598c0 .96056-.77331 1.73387-1.73387 1.73387h-28.60884c-.66328 0-1.22538-.37664-1.51714-.92112l-4.76814-6.33946c-.33721-.42781-.59602-1.06179-.59602-1.80611"/><path fill="none" stroke="url(#am)" stroke-linecap="round" stroke-linejoin="round" stroke-width=".578" d="m94.77956 172.18955c0 .96056.77331 1.73387 1.73387 1.73387h17.3387c.40188 0 .7722-.13342 1.0656-.36122v.01806l2.60081-1.78806c.4579-.35747.70793-.79434.7405-1.48101" opacity=".64"/><path fill="none" stroke="url(#an)" stroke-linecap="round" stroke-linejoin="round" stroke-width=".578" d="m231.17728 172.18955c0 .96056-.7733 1.73387-1.73387 1.73387h-17.33869c-.40188 0-.7722-.13342-1.06561-.36122v.01806l-2.6008-1.78806c-.4579-.35747-.70793-.79434-.74051-1.48101" opacity=".57"/><path fill="#282d30" fill-rule="evenodd" d="m-7.75 157h-50.375l.875-16.375h61.5l-.375 14.75z" clip-path="url(#ao)" filter="url(#ap)" opacity=".467" transform="matrix(-.5779564 0 0 .5779564 206.32516 53.99746)"/><path fill="none" stroke="url(#aq)" stroke-linecap="round" stroke-linejoin="round" stroke-width=".578" d="m89.577956 142.13581c0 .96057.773304 1.73387 1.733874 1.73387h23.10019c.75158.01652 1.85064.02618 2.25764-.03612l2.87172-.36122c.88399 0 1.36761-.47719 1.31847-1.08367"/><path fill="none" stroke="url(#ar)" stroke-linecap="round" stroke-linejoin="round" stroke-width=".578" d="m236.37889 142.13581c0 .96057-.77331 1.73387-1.73387 1.73387h-23.10019c-.75159.01652-1.85064.02618-2.25765-.03612l-2.87172-.36122c-.88399 0-1.3676-.47719-1.31846-1.08367"/><path fill="url(#as)" fill-rule="evenodd" d="m107.76552 105.50782c-1.27637.03613-2.3678.43402-2.98008 1.40877-.0078.01742-.01385.03557-.01807.05419-2.4798 5.86558-3.89887 15.06435-4.11794 24.92437.01932 1.13317.59368 2.16531 1.67969 2.45631.0232.00911.04748.01519.07224.01806h11.23403c.14527 0 .28736-.01588.43347-.03612h.05418l2.5105.09031c.50098.04339.9568-.06727 1.3004-.36122.34361-.29396.54184-.76008.54184-1.31847.33189-8.48947 1.39028-13.0572 3.61223-19.50603.01019-.01765.00886-.03637.01806-.05418.2027-.39264.17756-.81883.0903-1.15591-.0456-.17619-.10217-.32771-.16255-.45153-.06037-.12383-.10534-.19707-.19867-.28898-.01095-.01309-.02304-.02518-.03612-.03612-1.41438-1.0049-4.931-3.10962-8.45261-4.47917-1.76081-.68477-3.50973-1.19004-5.021-1.26428-.18891-.00928-.37756-.00516-.5599 0z" opacity=".5"/><path fill="#d39f41" fill-rule="evenodd" stroke="#a6926e" stroke-linecap="round" stroke-linejoin="round" stroke-width="1.014" d="m135.27045 14.062569c-11.23424.110709-14.41813 7.230436-9.28507 19.653468-.93441.210336-1.61748.269906-1.98955.288113-.27625.013522-.10287 1.239763.12214 1.231921 1.4033-.048902 3.90677-.151495 5.42413-.142111.21822.001349.31324-1.580771-.4937-3.716475-.70873-1.87576-1.73583-4.458034-1.69566-7.777628.04018-3.319597.012-7.163446 5.73075-7.635697.17878 4.991039.11614 11.916356-.11622 17.282733-.9427.054215-1.6548.222953-1.98652.342861-.26549.095966-.00837 1.412867.21312 1.386923.35044-.041049 2.49724-.072447 4.07658-.072341 1.57934-.000106 2.90029.019214 3.2491.072341.17035.025944.27132-1.372982.01756-1.438074-.31834-.081654-.99267-.237495-1.93537-.29171-.08682-5.318566-.17967-12.014437.13954-17.282733 5.71875.472251 5.57922 4.52071 5.61939 7.840304.04018 3.319597-.90148 5.690979-1.59334 7.573021-.65349 1.777641-.70479 3.716475-.43351 3.716475 1.36396 0 4.04836.00445 5.41691.046011.26791.008137.39836-1.070298.1712-1.116688-.26196-.053503-1.39055-.160343-2.08254-.256093 5.0512-12.245024 2.09932-19.645727-8.56894-19.704621z" filter="url(#aK)" opacity=".35" transform="matrix(.562 0 0 .5779564 87.107152 53.99746)"/><path fill="#fbeed5" fill-rule="evenodd" d="m162.22494 16.626906c-11.23424.110709-14.41813 7.230436-9.28507 19.653468-.93441.210336-1.61748.269906-1.98955.288113-.27625.013522-.10287 1.239763.12214 1.231921 1.4033-.048902 3.90677-.151495 5.42413-.142111.21822.001349.31324-1.580771-.4937-3.716475-.70873-1.87576-1.73583-4.458034-1.69566-7.777628.04018-3.319597.012-7.163446 5.73075-7.635697.17878 4.991039.11614 11.916356-.11622 17.282733-.9427.054215-1.6548.222953-1.98652.342861-.26549.095966-.00837 1.412867.21312 1.386923.35044-.041049 2.49724-.072447 4.07658-.072341 1.57934-.000106 2.90029.019214 3.2491.072341.17035.025944.27132-1.372982.01756-1.438074-.31834-.081654-.99267-.237495-1.93537-.29171-.08682-5.318566-.17967-12.014437.13954-17.282733 5.71875.472251 5.57922 4.52071 5.61939 7.840304.04018 3.319597-.90148 5.690979-1.59334 7.573021-.65349 1.777641-.70479 3.716475-.43351 3.716475 1.36396 0 4.04836.00445 5.41691.046011.26791.008137.39836-1.070298.1712-1.116688-.26196-.053503-1.39055-.160343-2.08254-.256093 5.0512-12.245024 2.09932-19.645727-8.56894-19.704621z" filter="url(#aL)" transform="matrix(.5779564 0 0 .5779564 69.349481 51.68563)"/><path fill="#f8e4c2" fill-rule="evenodd" d="m163.10843 61.72873c-6.4929.06398-8.33305 4.17887-5.36637 11.35885-.54005.12156-.93483.15599-1.14987.16651-.15966.00782-.05945.71653.07059.712.81105-.02826 2.25794-.08756 3.13491-.08214.12612.00078.18104-.91361-.28533-2.14796-.40962-1.0841-1.00324-2.57655-.98002-4.49513s.00693-4.14016 3.31212-4.4131c.10333 2.88461.06713 6.88714-.06717 9.98867-.54484.03133-.9564.12886-1.14812.19816-.15344.05546-.00484.81657.12317.80158.20254-.02372 1.4433-.04187 2.35609-.04181.91279-.00006 1.67624.01111 1.87784.04181.09845.01499.15681-.79352.01015-.83114-.18399-.0472-.57372-.13727-1.11856-.1686-.05018-3.0739-.10384-6.94382.08064-9.98867 3.30519.27294 3.22455 2.61278 3.24777 4.53136s-.52102 3.28914-.92088 4.37687c-.37769 1.0274-.40734 2.14796-.25055 2.14796.78831 0 2.33977.00258 3.13073.0266.15484.0047.23024-.61859.09895-.6454-.1514-.03092-.80368-.09267-1.20362-.14801 2.91938-7.07709 1.21332-11.35437-4.95247-11.38841z"/></g></svg>