/* XPM */
static char * mudlet_xpm[] = {
"48 48 883 2",
"  	c None",
". 	c #D0A352",
"+ 	c #CFA352",
"@ 	c #CEA150",
"# 	c #D9B670",
"$ 	c #E9CE9A",
"% 	c #E8CC98",
"& 	c #D8B46F",
"* 	c #CDA250",
"= 	c #CEA353",
"- 	c #CFA354",
"; 	c #DBB877",
"> 	c #F7E7C7",
", 	c #F8E6C5",
"' 	c #F7E4C0",
") 	c #F8E5C4",
"! 	c #F6E5C5",
"~ 	c #DBB775",
"{ 	c #CFA356",
"] 	c #CCA250",
"^ 	c #CEA457",
"/ 	c #D1A75D",
"( 	c #F6E1B9",
"_ 	c #F6E0B7",
": 	c #F6DFB7",
"< 	c #F6E0B8",
"[ 	c #F8E5C5",
"} 	c #D0A75A",
"| 	c #CFA658",
"1 	c #CEA355",
"2 	c #CCA454",
"3 	c #CDA256",
"4 	c #CCA254",
"5 	c #DDBA7C",
"6 	c #F2DCB7",
"7 	c #E9CF9E",
"8 	c #CCA253",
"9 	c #F6DFB6",
"0 	c #F5DFB6",
"a 	c #CDA353",
"b 	c #EBD2A3",
"c 	c #F1DCB5",
"d 	c #DCBB7C",
"e 	c #CCA256",
"f 	c #CDA357",
"g 	c #CFA355",
"h 	c #E0C085",
"i 	c #F4E2BF",
"j 	c #F7E4C2",
"k 	c #F6E1BA",
"l 	c #F3DEB3",
"m 	c #CCA152",
"n 	c #F1D8AA",
"o 	c #F5DEB5",
"p 	c #EFD5A6",
"q 	c #CCA255",
"r 	c #F4DDB4",
"s 	c #F6E0BB",
"t 	c #F7E4C3",
"u 	c #F4E0BC",
"v 	c #E0C086",
"w 	c #CFA459",
"x 	c #CDA558",
"y 	c #D0A75D",
"z 	c #EED6AB",
"A 	c #F7E5C4",
"B 	c #F5E0B8",
"C 	c #CDA55A",
"D 	c #DFBE83",
"E 	c #ECD19F",
"F 	c #E3C48C",
"G 	c #D9B674",
"H 	c #D9B676",
"I 	c #E3C58C",
"J 	c #EBD1A0",
"K 	c #DEBD81",
"L 	c #CEA55C",
"M 	c #F5DFB8",
"N 	c #F6E4C3",
"O 	c #EDD4AA",
"P 	c #D0A960",
"Q 	c #CDA75C",
"R 	c #CDA457",
"S 	c #D6B16D",
"T 	c #F4E2BE",
"U 	c #F5E1BC",
"V 	c #F4DEB4",
"W 	c #ECD2A2",
"X 	c #CBA45B",
"Y 	c #CBA257",
"Z 	c #CCA660",
"` 	c #C6A366",
" .	c #BBA16B",
"..	c #C6A465",
"+.	c #CCA760",
"@.	c #CDA359",
"#.	c #CFA860",
"$.	c #ECD2A1",
"%.	c #F4DDB3",
"&.	c #F4E1BC",
"*.	c #F3E0BC",
"=.	c #D7B371",
"-.	c #CEA55B",
";.	c #CFA65A",
">.	c #CDA459",
",.	c #CFA65D",
"'.	c #F1D9AE",
").	c #EBD09F",
"!.	c #D6B26F",
"~.	c #CDA55D",
"{.	c #BA9E6A",
"].	c #A89776",
"^.	c #ACAA8F",
"/.	c #AFC0AF",
"(.	c #B3D4CD",
"_.	c #AFC0B0",
":.	c #A99B7B",
"<.	c #BA9F6B",
"[.	c #CDA55F",
"}.	c #D5B171",
"|.	c #F3DCB2",
"1.	c #F0D8AE",
"2.	c #D0A761",
"3.	c #CDA65D",
"4.	c #CFA75F",
"5.	c #CDA65C",
"6.	c #D6B270",
"7.	c #D2AC66",
"8.	c #ECD2A4",
"9.	c #F2DBB1",
"0.	c #DCBA7D",
"a.	c #CDA55E",
"b.	c #B99E6A",
"c.	c #ACA485",
"d.	c #B5D7CF",
"e.	c #BDF8FE",
"f.	c #BDF9FF",
"g.	c #BAA06C",
"h.	c #CDA761",
"i.	c #DCBA7F",
"j.	c #F2DAAF",
"k.	c #ECD2A3",
"l.	c #CDA65E",
"m.	c #D2AC69",
"n.	c #F2DFBB",
"o.	c #D6B374",
"p.	c #CDA860",
"q.	c #D1AB65",
"r.	c #F3E0BB",
"s.	c #F3DDB4",
"t.	c #D2AC68",
"u.	c #C8A566",
"v.	c #AA9A75",
"w.	c #BADDD7",
"x.	c #C1F9FF",
"y.	c #AA9A76",
"z.	c #C8A768",
"A.	c #D1AD6A",
"B.	c #D5B272",
"C.	c #F2DBB0",
"D.	c #F2DCB2",
"E.	c #F2DEB7",
"F.	c #D0AC68",
"G.	c #CEA85F",
"H.	c #EFDAB2",
"I.	c #F4DEB5",
"J.	c #F3DBB1",
"K.	c #F0D7A9",
"L.	c #BCA06B",
"M.	c #ACA385",
"N.	c #C1EEEF",
"O.	c #C4F9FF",
"P.	c #BCA26E",
"Q.	c #EFD6AA",
"R.	c #F1DAAF",
"S.	c #F2DCB3",
"T.	c #EED7AE",
"U.	c #CDA963",
"V.	c #CFA861",
"W.	c #E0C48E",
"X.	c #F3DFB9",
"Y.	c #F1DBAE",
"Z.	c #D4B06E",
"`.	c #C1A36B",
" +	c #B2B39D",
".+	c #C8F6FB",
"++	c #C8F9FF",
"@+	c #B2B49D",
"#+	c #C2A56F",
"$+	c #D4B172",
"%+	c #F0D9AE",
"&+	c #F1D9AF",
"*+	c #F2DCB5",
"=+	c #E1C38E",
"-+	c #CEA866",
";+	c #CFA962",
">+	c #F2DDB9",
",+	c #F2DAB1",
"'+	c #F2DAB0",
")+	c #DBBA7F",
"!+	c #C8A668",
"~+	c #ACA282",
"{+	c #CAF6F9",
"]+	c #CBFAFF",
"^+	c #ADA383",
"/+	c #C9A86D",
"(+	c #DABB81",
"_+	c #F0D9AF",
":+	c #CDAB68",
"<+	c #CEA864",
"[+	c #E3C693",
"}+	c #F2DCB4",
"|+	c #E8CD9B",
"1+	c #CCA864",
"2+	c #AC9B76",
"3+	c #CBEEEE",
"4+	c #CFFAFF",
"5+	c #AC9B77",
"6+	c #CCAA69",
"7+	c #E7CC9B",
"8+	c #F0D8AD",
"9+	c #F1DBB3",
"0+	c #E1C592",
"a+	c #CDA968",
"b+	c #CCA762",
"c+	c #D7B679",
"d+	c #E8CC9B",
"e+	c #D2AE6F",
"f+	c #BAA070",
"g+	c #C0CFC3",
"h+	c #D2FAFF",
"i+	c #BAA373",
"j+	c #D1B173",
"k+	c #EFD7AC",
"l+	c #E7CC9C",
"m+	c #D4B478",
"n+	c #CBA967",
"o+	c #CEA965",
"p+	c #D7B77B",
"q+	c #D3B273",
"r+	c #CBA762",
"s+	c #CCA965",
"t+	c #D5B476",
"u+	c #CBA96A",
"v+	c #AB9D7B",
"w+	c #D5F9FC",
"x+	c #D6FBFF",
"y+	c #AB9D7C",
"z+	c #CBAB6E",
"A+	c #D5B579",
"B+	c #CCAA6A",
"C+	c #CBA868",
"D+	c #D2B274",
"E+	c #CCAB6B",
"F+	c #CDAA68",
"G+	c #E9D1A4",
"H+	c #DDBF89",
"I+	c #CCA866",
"J+	c #B59D70",
"K+	c #C7D5CA",
"L+	c #D9FBFF",
"M+	c #C7D5CB",
"N+	c #B69F73",
"O+	c #DCC08A",
"P+	c #ECD4A8",
"Q+	c #EFD7AD",
"R+	c #E5CB9C",
"S+	c #CDAD6E",
"T+	c #F0DAB3",
"U+	c #EED6AA",
"V+	c #CCA969",
"W+	c #AC9873",
"X+	c #DDF9FD",
"Y+	c #DDFBFF",
"Z+	c #AC9874",
"`+	c #CCAA6D",
" @	c #EDD5A8",
".@	c #EED6A9",
"+@	c #EED7AC",
"@@	c #CDAB6E",
"#@	c #D5B57A",
"$@	c #F0DAB2",
"%@	c #EFD7AB",
"&@	c #E6CC9A",
"*@	c #CAA96E",
"=@	c #B1AB7E",
"-@	c #CCF0AD",
";@	c #D1F3C3",
">@	c #D7F6DA",
",@	c #DCF9F1",
"'@	c #E0FCFF",
")@	c #B7AF94",
"!@	c #CBAC74",
"~@	c #E4CA9A",
"{@	c #EDD5A9",
"]@	c #D2B47B",
"^@	c #DCBD88",
"/@	c #EFD8AF",
"(@	c #DCBE89",
"_@	c #C0A570",
":@	c #BAC98D",
"<@	c #C9EFA5",
"[@	c #CAEFA7",
"}@	c #CEF1B4",
"|@	c #D7F6D2",
"1@	c #DFF9F1",
"2@	c #E4FCFF",
"3@	c #E3FCFE",
"4@	c #D9F7F1",
"5@	c #C8F0DE",
"6@	c #B9EACC",
"7@	c #ACC39E",
"8@	c #C1A777",
"9@	c #DCBF8B",
"0@	c #EDD4A8",
"a@	c #EDD5AA",
"b@	c #DBBD88",
"c@	c #CBA86B",
"d@	c #DEC28F",
"e@	c #D4B47B",
"f@	c #B69F70",
"g@	c #BCDB91",
"h@	c #C2ED9B",
"i@	c #C3EE9C",
"j@	c #C4EE9E",
"k@	c #C6EEA0",
"l@	c #C7EFA2",
"m@	c #C8EFA5",
"n@	c #CFF1B6",
"o@	c #D9F5D5",
"p@	c #E3FAF3",
"q@	c #E7FCFF",
"r@	c #E2FAF9",
"s@	c #D2F3E7",
"t@	c #C2EDD4",
"u@	c #B1E7C2",
"v@	c #ADE5BD",
"w@	c #ABD5AD",
"x@	c #B7A175",
"y@	c #D4B780",
"z@	c #ECD4A7",
"A@	c #ECD5A8",
"B@	c #DCC18D",
"C@	c #CBAC71",
"D@	c #CDAD6F",
"E@	c #E2C695",
"F@	c #EDD6AB",
"G@	c #D0B177",
"H@	c #B19B70",
"I@	c #B8E48D",
"J@	c #BBEB90",
"K@	c #BCEC92",
"L@	c #BDEC94",
"M@	c #BFEC96",
"N@	c #C0ED98",
"O@	c #C1ED9A",
"P@	c #C3EE9D",
"Q@	c #C5EE9F",
"R@	c #C7EEA2",
"S@	c #C8EFA4",
"T@	c #D1F2B9",
"U@	c #DEF8DE",
"V@	c #EAFDFD",
"W@	c #EAFDFF",
"X@	c #E4FAF9",
"Y@	c #CBF1DD",
"Z@	c #B9EACA",
"`@	c #ABE4BA",
" #	c #A9E3B8",
".#	c #A7E2B6",
"+#	c #A6E2B4",
"@#	c #A4E1B2",
"##	c #A3D9AC",
"$#	c #B09B72",
"%#	c #D0B37C",
"&#	c #ECD3A6",
"*#	c #ECD3A7",
"=#	c #DFC492",
"-#	c #CDAF75",
";#	c #CDAC72",
">#	c #E4CA9B",
",#	c #EDD4A9",
"'#	c #CDAE73",
")#	c #AB966F",
"!#	c #B3E983",
"~#	c #B4EA86",
"{#	c #B5EA88",
"]#	c #B6EA89",
"^#	c #B7EB8B",
"/#	c #B9EB8E",
"(#	c #BAEB90",
"_#	c #BEEC95",
":#	c #C0ED97",
"<#	c #CBEFAA",
"[#	c #DAF6D0",
"}#	c #E2F9ED",
"|#	c #C7EFD8",
"1#	c #AFE6BF",
"2#	c #AAE4BA",
"3#	c #A8E3B6",
"4#	c #A5E1B3",
"5#	c #A3E0B0",
"6#	c #A1DFAE",
"7#	c #9FDEAB",
"8#	c #9DDDAA",
"9#	c #9CDDA8",
"0#	c #9BDCA6",
"a#	c #AA9770",
"b#	c #CDB077",
"c#	c #EBD3A5",
"d#	c #EBD2A5",
"e#	c #E2C796",
"f#	c #CCAF78",
"g#	c #CBAC6F",
"h#	c #CBAB6F",
"i#	c #CBAB70",
"j#	c #C8A971",
"k#	c #A8AB72",
"l#	c #ACE87B",
"m#	c #AEE87D",
"n#	c #AFE87F",
"o#	c #B0E981",
"p#	c #B2E983",
"q#	c #B3EA86",
"r#	c #BDEC93",
"s#	c #BEED95",
"t#	c #C0ED99",
"u#	c #C2ED9C",
"v#	c #C4ED9F",
"w#	c #BDEAAA",
"x#	c #AFE5B3",
"y#	c #A3E0B1",
"z#	c #A0DFAD",
"A#	c #9EDEAA",
"B#	c #9BDCA7",
"C#	c #99DBA4",
"D#	c #97DAA1",
"E#	c #95D99F",
"F#	c #94D99E",
"G#	c #A3A77C",
"H#	c #C8A76A",
"I#	c #CBA867",
"J#	c #CBA866",
"K#	c #A6926E",
"L#	c #A5E671",
"M#	c #A7E673",
"N#	c #A8E775",
"O#	c #A9E777",
"P#	c #ABE779",
"Q#	c #AEE87E",
"R#	c #B3E985",
"S#	c #B6EA88",
"T#	c #B9EB8D",
"U#	c #B9EA8F",
"V#	c #BBEB91",
"W#	c #BDEB95",
"X#	c #BFEC98",
"Y#	c #B3E7A3",
"Z#	c #9EDDA6",
"`#	c #96DAA1",
" $	c #93D89D",
".$	c #91D79A",
"+$	c #8FD697",
"@$	c #8DD595",
"#$	c #8BD493",
"$$	c #CBA969",
"%$	c #CBA968",
"&$	c #CBAC72",
"*$	c #CBAC73",
"=$	c #9EE466",
"-$	c #9FE468",
";$	c #A1E56A",
">$	c #A2E56C",
",$	c #A4E66F",
"'$	c #A7E674",
")$	c #AAE779",
"!$	c #ADE87C",
"~$	c #AEE87F",
"{$	c #B1E881",
"]$	c #B2E984",
"^$	c #B4E887",
"/$	c #B6E88B",
"($	c #B8E98D",
"_$	c #BAEA90",
":$	c #B8E896",
"<$	c #ADE19B",
"[$	c #A2E09A",
"}$	c #9CDC95",
"|$	c #98DA93",
"1$	c #96D890",
"2$	c #92D68F",
"3$	c #8DD48C",
"4$	c #CBAA6B",
"5$	c #EED5A9",
"6$	c #CAAD73",
"7$	c #CBAD74",
"8$	c #CBAD75",
"9$	c #C8AB75",
"0$	c #A3AF6A",
"a$	c #9BE361",
"b$	c #9BE362",
"c$	c #9DE464",
"d$	c #9FE467",
"e$	c #9FE56A",
"f$	c #A2E46C",
"g$	c #A4E570",
"h$	c #A7E573",
"i$	c #A9E678",
"j$	c #AAE67A",
"k$	c #ADE67C",
"l$	c #AEE77E",
"m$	c #AFE882",
"n$	c #B2E884",
"o$	c #B3E788",
"p$	c #C1EA91",
"q$	c #EFF1A6",
"r$	c #C7EC96",
"s$	c #BCEB94",
"t$	c #C0EB98",
"u$	c #BFEA99",
"v$	c #C0EB9A",
"w$	c #B1B27F",
"x$	c #C8A86F",
"y$	c #CBAA6D",
"z$	c #CBAA6C",
"A$	c #CAA96B",
"B$	c #AB9367",
"C$	c #B49E78",
"D$	c #AB9368",
"E$	c #8E7E62",
"F$	c #9AE25F",
"G$	c #9AE260",
"H$	c #9CE362",
"I$	c #9EE465",
"J$	c #A1E46B",
"K$	c #A3E46E",
"L$	c #A5E471",
"M$	c #A6E573",
"N$	c #A8E476",
"O$	c #AAE579",
"P$	c #ADE67D",
"Q$	c #B8E885",
"R$	c #E7F09F",
"S$	c #F6F4A8",
"T$	c #DBEF9D",
"U$	c #B9E88F",
"V$	c #BCEB93",
"W$	c #BDEA94",
"X$	c #C0EB99",
"Y$	c #AB9262",
"Z$	c #B59E76",
"`$	c #AB9160",
" %	c #CBAD76",
".%	c #E1C89C",
"+%	c #CBAE77",
"@%	c #99E15D",
"#%	c #9AE15E",
"$%	c #99E25F",
"%%	c #9AE160",
"&%	c #9BE260",
"*%	c #9BE261",
"=%	c #9AE262",
"-%	c #9DE366",
";%	c #9FE368",
">%	c #A0E46B",
",%	c #A2E36F",
"'%	c #A6E571",
")%	c #C1E785",
"!%	c #EEF1A0",
"~%	c #F5F3A6",
"{%	c #F8F3A8",
"]%	c #EAF2A3",
"^%	c #B5E88A",
"/%	c #B8E98C",
"(%	c #BAEA91",
"_%	c #BEEB97",
":%	c #E2CA9F",
"<%	c #CBAE78",
"[%	c #E1C89B",
"}%	c #CBAE79",
"|%	c #98E05B",
"1%	c #99E05C",
"2%	c #99E05D",
"3%	c #9AE15D",
"4%	c #9AE25E",
"5%	c #99E15F",
"6%	c #99E05F",
"7%	c #99E160",
"8%	c #99E261",
"9%	c #99E161",
"0%	c #9BE264",
"a%	c #A7E46E",
"b%	c #D5EB8C",
"c%	c #F0F09F",
"d%	c #F4F0A2",
"e%	c #F7F3A5",
"f%	c #FBF3A8",
"g%	c #EDF3A2",
"h%	c #B2E885",
"i%	c #B3E888",
"j%	c #B6E98B",
"k%	c #B9E98F",
"l%	c #BBEA92",
"m%	c #E2C99E",
"n%	c #E2CA9E",
"o%	c #CAAF7A",
"p%	c #E1C79B",
"q%	c #CAAF7B",
"r%	c #98DF59",
"s%	c #97DE5A",
"t%	c #98DE59",
"u%	c #98DE5A",
"v%	c #97E05B",
"w%	c #98E05A",
"x%	c #99DF5C",
"y%	c #98E15D",
"z%	c #99E05E",
"A%	c #98E05E",
"B%	c #9AE060",
"C%	c #C0E67A",
"D%	c #E9EC98",
"E%	c #F1F0A0",
"F%	c #F4F1A2",
"G%	c #F8F2A4",
"H%	c #FAF2A4",
"I%	c #FDF3A6",
"J%	c #EEF0A0",
"K%	c #AEE780",
"L%	c #B1E883",
"M%	c #B3E887",
"N%	c #B6E98A",
"O%	c #E0C79A",
"P%	c #CAB07C",
"Q%	c #96DE57",
"R%	c #97DE57",
"S%	c #97DE58",
"T%	c #97DF59",
"U%	c #97E05A",
"V%	c #97DF5A",
"W%	c #97DE5B",
"X%	c #98DF5C",
"Y%	c #97DF5C",
"Z%	c #A8E268",
"`%	c #DEED90",
" &	c #EFF09C",
".&	c #F1EF9E",
"+&	c #F5F1A1",
"@&	c #F9F2A3",
"#&	c #FBF2A5",
"$&	c #FCF3A6",
"%&	c #FDF3A7",
"&&	c #F0F2A1",
"*&	c #ACE77C",
"=&	c #B0E782",
"-&	c #B4E989",
";&	c #B7E98C",
">&	c #E1C99D",
",&	c #CAB07D",
"'&	c #E0C799",
")&	c #CAB07E",
"!&	c #96DD54",
"~&	c #96DD56",
"{&	c #95DD56",
"]&	c #96DD58",
"^&	c #96DF59",
"/&	c #97DE59",
"(&	c #96DE5A",
"_&	c #B8E573",
":&	c #ECEE99",
"<&	c #F0F09C",
"[&	c #F3F09F",
"}&	c #F7F1A2",
"|&	c #FBF2A4",
"1&	c #FCF2A5",
"2&	c #FDF2A6",
"3&	c #F7F1A4",
"4&	c #A9E578",
"5&	c #ABE67A",
"6&	c #ADE77E",
"7&	c #B0E781",
"8&	c #B4E988",
"9&	c #E1C89D",
"0&	c #CAB07F",
"a&	c #E0C699",
"b&	c #CAB180",
"c&	c #95DB54",
"d&	c #95DC54",
"e&	c #95DB53",
"f&	c #95DD55",
"g&	c #95DD54",
"h&	c #95DE56",
"i&	c #96DE56",
"j&	c #96DE58",
"k&	c #CBE984",
"l&	c #F1F09E",
"m&	c #F4F0A0",
"n&	c #F7F2A3",
"o&	c #FEF3A7",
"p&	c #B4E87B",
"q&	c #A8E576",
"r&	c #ADE77D",
"s&	c #AFE781",
"t&	c #E0C698",
"u&	c #CAB181",
"v&	c #94DC52",
"w&	c #95DB52",
"x&	c #95DC52",
"y&	c #94DC53",
"z&	c #95DC53",
"A&	c #94DC54",
"B&	c #9FE15F",
"C&	c #DDED90",
"D&	c #F3F1A1",
"E&	c #F5F1A2",
"F&	c #F8F3A4",
"G&	c #FAF3A5",
"H&	c #FEF4A8",
"I&	c #FEF4A7",
"J&	c #FEF3A8",
"K&	c #C7EB85",
"L&	c #A6E572",
"M&	c #AAE679",
"N&	c #CAAF79",
"O&	c #CAB282",
"P&	c #DFC698",
"Q&	c #DFC598",
"R&	c #CAB283",
"S&	c #A6926F",
"T&	c #AA9876",
"U&	c #A7A072",
"V&	c #94DA51",
"W&	c #94DB52",
"X&	c #ACE268",
"Y&	c #EAF19D",
"Z&	c #F4F0A1",
"`&	c #F6F2A4",
" *	c #F9F3A5",
".*	c #FCF4A6",
"+*	c #FCF3A7",
"@*	c #FDF3A8",
"#*	c #FEF4A9",
"$*	c #FEF3A9",
"%*	c #FEF3AA",
"&*	c #E0EF96",
"**	c #A4E46F",
"=*	c #AAA176",
"-*	c #E0C79B",
";*	c #AE9C77",
">*	c #C9B184",
",*	c #CAB284",
"'*	c #CAB285",
")*	c #C9B185",
"!*	c #C1A77B",
"~*	c #CAAF80",
"{*	c #C8AD80",
"]*	c #93DA4F",
"^*	c #94DC51",
"/*	c #93DB51",
"(*	c #AFE269",
"_*	c #EFF2A3",
":*	c #F7F3A7",
"<*	c #F8F3A7",
"[*	c #FAF3A8",
"}*	c #FDF4AA",
"|*	c #FDF3A9",
"1*	c #FDF4AB",
"2*	c #FEF4AB",
"3*	c #FFF4AB",
"4*	c #FFF5AC",
"5*	c #FEF4AC",
"6*	c #FAF4AB",
"7*	c #A4E46D",
"8*	c #A4E470",
"9*	c #D1B380",
"0*	c #D0B380",
"a*	c #C3A87B",
"b*	c #C8AF7D",
"c*	c #CAAF7C",
"d*	c #C8AE7C",
"e*	c #AF9B77",
"f*	c #C2A879",
"g*	c #C2A779",
"h*	c #C1A779",
"i*	c #C1A678",
"j*	c #C1A679",
"k*	c #C5AB7F",
"l*	c #93D94E",
"m*	c #94DA4E",
"n*	c #B1E26B",
"o*	c #F4F3A5",
"p*	c #F7F5A8",
"q*	c #F8F5A8",
"r*	c #FAF5AA",
"s*	c #FAF4AC",
"t*	c #FDF5AE",
"u*	c #FEF4AD",
"v*	c #FEF5AD",
"w*	c #FFF6AE",
"x*	c #FFF5AE",
"y*	c #FFF6AF",
"z*	c #CEEC8B",
"A*	c #A2E46D",
"B*	c #CDB080",
"C*	c #CBB17E",
"D*	c #C9AF7C",
"E*	c #E6CB9B",
"F*	c #E5CB9B",
"G*	c #C6AB7D",
"H*	c #C1A97E",
"I*	c #92D94E",
"J*	c #B4E26D",
"K*	c #F7F4A9",
"L*	c #F9F4AA",
"M*	c #FBF5AC",
"N*	c #FCF5AC",
"O*	c #FDF6AD",
"P*	c #FEF6AF",
"Q*	c #FEF5AE",
"R*	c #AFE575",
"S*	c #C8AF80",
"T*	c #CEB484",
"U*	c #E7CD9E",
"V*	c #E7CE9F",
"W*	c #E8CE9F",
"X*	c #C0A577",
"Y*	c #E5CA9A",
"Z*	c #C5AB7D",
"`*	c #BFA77E",
" =	c #B8E36F",
".=	c #FAF5AB",
"+=	c #FCF5AE",
"@=	c #FEF6AE",
"#=	c #E7F19E",
"$=	c #C5AC80",
"%=	c #CEB584",
"&=	c #BFA476",
"*=	c #E4CA99",
"==	c #C4A97B",
"-=	c #BDA57E",
";=	c #FCF6AD",
">=	c #FDF5AD",
",=	c #C2A981",
"'=	c #CDB686",
")=	c #E6CC9D",
"!=	c #E7CC9D",
"~=	c #E7CD9D",
"{=	c #BEA375",
"]=	c #E4C999",
"^=	c #C3A87A",
"/=	c #B3A277",
"(=	c #B5A77F",
"_=	c #B5A77C",
":=	c #CDB688",
"<=	c #E6CC9C",
"[=	c #BDA274",
"}=	c #E4C998",
"|=	c #E3C998",
"1=	c #B19E77",
"2=	c #D8D196",
"3=	c #D9D197",
"4=	c #B4A27B",
"5=	c #CCB587",
"6=	c #E6CB9C",
"7=	c #BEA275",
"8=	c #BCA173",
"9=	c #BBA173",
"0=	c #BBA072",
"a=	c #C9BB8A",
"b=	c #FAF1AC",
"c=	c #CBBE8D",
"d=	c #C9B287",
"e=	c #CAB387",
"f=	c #CAB386",
"g=	c #C9B385",
"h=	c #B3AD81",
"i=	c #C1BA89",
"j=	c #C9C38F",
"k=	c #CFC891",
"l=	c #EFE7A5",
"m=	c #D2CB94",
"n=	c #BDB786",
"o=	c #FFF7B0",
"p=	c #FFF7AE",
"                                              . .                                               ",
"                                        + @ # $ % & * =                                         ",
"                                      - ; > , ' ' ) ! ~ {                                       ",
"                                ] = ^ / , ( _ _ : : < [ } | 1 2                                 ",
"                            3 4 5 6 7 8 9 9 0 0 0 0 0 0 a b c d e f                             ",
"                          g h i j k l m n o o o o o o p q r s t u v w                           ",
"                      x y z A B o o o C D E F G H I J K L r r r M N O P Q                       ",
"                    R S T U V V V r W X Y Z `  . ...+.@.#.$.%.%.%.r &.*.=.-.                    ",
"                  ;.>.,.'.r %.%.).!.~.{.].^./.(.(._.^.:.<.[.}.).|.|.|.1.2.3.4.                  ",
"                5.6.i 7.C 8.9.0.a.b.c.d.e.f.f.f.f.f.f.e.d.c.g.h.i.j.k.l.m.n.o.p.                ",
"                q.r.s.|.6.C t.u.v.w.x.x.x.x.x.x.x.x.x.x.x.x.w.y.z.A.a.B.C.D.E.F.                ",
"              G.H.I.J.J.K.l.L.M.N.O.O.O.O.O.O.O.O.O.O.O.O.O.O.N.M.P.h.Q.R.R.S.T.U.              ",
"            V.W.X.9.9.Y.Z.`. +.+++++++++++++++++++++++++++++++++.+@+#+$+%+&+'.*+=+-+            ",
"            ;+>+,+'+'+)+!+~+{+]+]+]+]+]+]+]+]+]+]+]+]+]+]+]+]+]+]+{+^+/+(+%+%+_+c :+            ",
"          <+[+}+R.R.|+1+2+3+4+4+4+4+4+4+4+4+4+4+4+4+4+4+4+4+4+4+4+4+3+5+6+7+8+8+9+0+a+          ",
"          b+c+d+'.'.e+f+g+h+h+h+h+h+h+h+h+h+h+h+h+h+h+h+h+h+h+h+h+h+h+g+i+j+k+k+l+m+n+          ",
"        o+p+q+r+s+t+u+v+w+x+x+x+x+x+x+x+x+x+x+x+x+x+x+x+x+x+x+x+x+x+x+w+y+z+A+B+C+D+m+E+        ",
"        F+G+_+z H+I+J+K+L+L+L+L+L+L+L+L+L+L+L+L+L+L+L+L+L+L+L+L+L+L+L+L+M+N+E+O+P+Q+R+S+        ",
"        a+T+k+k+U+V+W+X+Y+Y+Y+Y+Y+Y+Y+Y+Y+Y+Y+Y+Y+Y+Y+Y+Y+Y+Y+Y+Y+Y+Y+Y+X+Z+`+ @.@.@+@@@        ",
"        #@$@%@%@&@*@=@-@;@>@,@'@'@'@'@'@'@'@'@'@'@'@'@'@'@'@'@'@'@'@'@'@'@)@!@~@{@{@+@]@        ",
"        ^@/@U+U+(@_@:@<@[@[@[@}@|@1@2@2@2@2@2@2@2@2@2@2@2@2@2@2@2@3@4@5@6@7@8@9@0@0@a@b@        ",
"      c@d@Q+U+.@e@f@g@h@i@j@k@l@m@[@n@o@p@q@q@q@q@q@q@q@q@q@r@s@t@u@v@v@v@w@x@y@z@z@A@B@C@      ",
"      D@E@F@{@{@G@H@I@J@K@L@M@N@O@P@Q@R@S@T@U@V@W@W@W@X@Y@Z@v@v@`@ #.#+#@###$#%#&#&#*#=#-#      ",
"      ;#>#,#0@0@'#)#!#~#{#]#^#/#(#K@_#:#O@P@k@<#[#}#|#1#v@2#3#4#5#6#7#8#9#0#a#b#c#c#d#e#f#      ",
"g#z+h#h#h#h#h#h#i#j#k#l#m#n#o#p#q#{#^#/#J@r#s#t#u#v#w#x#+#y#z#A#B#C#D#E#F#G#H#C+I#I#I#I#I#I#J#n+",
"i#&#&#&#&#&#&#&#&#C@K#L#M#N#O#P#l#Q#o#p#R#S#T#U#V#L@W#X#Y#Z#C#`# $.$+$@$#$K#$$U+U+U+U+U+U+U+U+%$",
"&$c#c#c#d#d#d#d#d#*$K#=$-$;$>$,$L#'$O#)$!$~${$]$^$]#/$($_$:$<$[$}$|$1$2$3$K#4${@{@5$5$5$5$5$5$u+",
"6$7$7$7$7$7$7$8$8$9$0$a$b$b$b$c$d$e$f$g$h$N#i$j$k$l$m$n$o$p$q$r$s$t$u$v$v$w$x$y$z$4$4$4$4$z$4$A$",
"    B$C$C$C$C$C$D$E$F$F$G$G$a$a$a$b$H$I$-$J$K$L$M$N$O$P$Q$R$S$T$U$V$W$X$v$v$E$Y$Z$Z$Z$Z$Z$`$    ",
"     %.%.%.%.%.%+%K#@%@%#%#%$%#%%%&%*%G$=%b$-%;%>%,%'%)%!%~%{%]%^%/%(%V$_%v$K#h#:%:%:%:%:%z+    ",
"    <%.%.%.%.%[%}%K#|%1%1%1%@%2%3%3%4%5%6%7%8%9%0%a%b%c%d%e%f%g%h%i%j%k%l%W#K#C@m%n%n%n%:%i#    ",
"    o%[%[%p%p%p%q%K#r%s%t%u%v%w%x%y%y%@%z%A%5%B%C%D%E%F%G%H%I%J%K%L%M%N%($_$K#*$m%m%m%m%m%C@    ",
"    q%O%O%O%O%O%P%K#Q%R%S%T%t%T%s%U%V%W%X%Y%Z%`% &.&+&@&#&$&%&&&*&l$=&h%-&;&K#7$>&>&>&>&>&*$    ",
"    ,&O%O%O%O%'&)&K#!&~&{&R%Q%]&]&^&/&(&(&_&:&<&[&}&@&|&1&2&2&3&4&5&6&7&h%8&K# %.%.%.%9&9&8$    ",
"    0&a&a&a&a&a&b&K#c&d&e&f&g&{&h&i&j&r%k& &l&m&n&H%#&2&2&o&o&o&p&q&j$r&s&n$K#<%.%.%.%.%.%+%    ",
"    b&t&t&t&t&t&u&K#v&w&x&v&y&z&A&~&B&C&l&D&E&F&G&%&H&I&J&J&J&J&K&L&q&M&r&s&K#N&[%[%[%[%[%<%    ",
"    O&P&P&P&P&Q&R&S&T&T&U&V&W&W&y&X&Y&D&Z&`& *.*+*@*%&J&#*#*$*%*&***L&=*T&T&S&q%O%O%O%-*p%o%    ",
"  ;*>*,*,*,*,*'*)*!*~*{*T&]*^*/*(*_*~%:*<*[*}*|*1*}*2*3*4*5*4*5*6*7*8*T&9*0*a*b*,&P%P%c*c*d*e*  ",
"f*g*g*g*h*h*i*i*i*i*j*k*T&l*m*n*o*p*q*r*s*t*u*v*v*w*w*w*x*y*y*w*w*z*A*T&B*C*,&,&P%P%P%c*c*c*q%D*",
"i*E*F*F*F*F*F*F*F*F*G*H*T&I*J*K*L*r*M*N*O*P*w*y*x*x*x*Q*y*y*y*y*y*O*R*T&S*T*U*V*V*V*V*W*W*W*W*,&",
"X*F*F*F*F*Y*Y*Y*Y*Y*Z*`*T& =.=.=M*N*+=@=@=@=y*y*y*y*y*y*y*y*y*y*y*y*#=T&$=%=U*U*U*U*U*U*U*U*U*0&",
"&=Y*Y*Y*~@~@~@~@~@*===-=T&;=t*t*O*>=P*w*Q*y*y*y*y*y*y*y*y*y*y*y*y*y*y*T&,='=)=)=)=)=)=!=~=~=~=b&",
"{=*=*=]=]=]=]=]=]=]=^=/=(=P*Q*t*@=Q*@=y*y*y*y*y*y*y*y*y*y*y*y*y*y*y*y*(=_=:=<=<=<=<=<=<=<=)=)=O&",
"[=]=}=}=}=}=}=|=|=|=h*1=2=@=w*@=@=y*y*y*y*y*y*y*y*y*y*y*y*y*y*y*y*y*y*3=4=5=F*F*F*F*E*6=6=6=6=,*",
"7=8=8=8=8=8=8=9=0=0=8=a=b=y*y*y*y*y*y*y*y*y*y*y*y*y*y*y*y*y*y*y*y*y*y*b=c=d=e=e=e=f=f=f=f=f=f=g=",
"              h=i=j=k=l=y*y*y*y*y*y*y*y*y*y*y*y*y*y*y*y*y*y*y*y*y*y*y*y*l=m=k=j=n=              ",
"                      w*o=p=y*y*y*y*y*y*y*y*y*y*y*y*y*y*y*y*y*y*y*y*y*y*y*                      ",
"                                                                                                "};
