<svg xmlns="http://www.w3.org/2000/svg" xmlns:svg="http://www.w3.org/2000/svg" xmlns:xlink="http://www.w3.org/1999/xlink" id="svg1289" width="297mm" height="210mm" version="1.1" viewBox="0 0 297 210"><defs id="defs1283"><linearGradient id="linearGradient921"><stop id="stop917" offset="0" stop-color="silver" stop-opacity="1"/><stop id="stop919" offset="1" stop-color="gray" stop-opacity="1"/></linearGradient><linearGradient id="linearGradient890"><stop id="stop886" offset="0" stop-color="#7f68d8" stop-opacity="1"/><stop id="stop888" offset="1" stop-color="#291c54" stop-opacity="1"/></linearGradient><linearGradient id="linearGradient60"><stop id="stop54" offset="0" stop-color="#a35800" stop-opacity="1"/><stop id="stop56" offset=".5" stop-color="#995300" stop-opacity="1"/><stop id="stop58" offset="1" stop-color="#613900" stop-opacity="1"/></linearGradient><linearGradient id="linearGradient52"><stop id="stop46" offset="0" stop-color="#a35800" stop-opacity="1"/><stop id="stop48" offset=".5" stop-color="#995300" stop-opacity="1"/><stop id="stop50" offset="1" stop-color="#613900" stop-opacity="1"/></linearGradient><linearGradient id="linearGradient2369"><stop id="stop2363" offset="0" stop-color="#a35800" stop-opacity="1"/><stop id="stop2365" offset=".625" stop-color="#995300" stop-opacity="0"/><stop id="stop2367" offset="1" stop-color="#613900" stop-opacity="1"/></linearGradient><linearGradient id="linearGradient4541"><stop id="stop4543" offset="0" stop-color="#a35800" stop-opacity="1"/><stop id="stop4545" offset=".5" stop-color="#995300" stop-opacity="1"/><stop id="stop4547" offset="1" stop-color="#613900" stop-opacity="1"/></linearGradient><linearGradient id="linearGradient1349" x1="116.553" x2="116.553" y1="263.787" y2="326.482" gradientTransform="matrix(0.91373704,0,0,0.91373704,21.915259,-96.65724)" gradientUnits="userSpaceOnUse" xlink:href="#linearGradient4541"/><linearGradient id="linearGradient1351" x1="116.553" x2="116.553" y1="263.787" y2="326.482" gradientTransform="matrix(0.91373704,0,0,0.91373704,21.915259,-96.65724)" gradientUnits="userSpaceOnUse" xlink:href="#linearGradient4541"/><linearGradient id="linearGradient1353" x1="116.553" x2="116.553" y1="263.787" y2="326.482" gradientTransform="matrix(0.91373704,0,0,0.91373704,21.915259,-96.65724)" gradientUnits="userSpaceOnUse" xlink:href="#linearGradient4541"/><linearGradient id="linearGradient1355" x1="116.553" x2="116.553" y1="263.787" y2="326.482" gradientTransform="matrix(0.91373704,0,0,0.91373704,21.915259,-96.65724)" gradientUnits="userSpaceOnUse" xlink:href="#linearGradient4541"/><linearGradient id="linearGradient1357" x1="116.553" x2="116.553" y1="263.787" y2="326.482" gradientTransform="matrix(0.91373704,0,0,0.91373704,21.915259,-96.65724)" gradientUnits="userSpaceOnUse" xlink:href="#linearGradient4541"/><linearGradient id="linearGradient1359" x1="116.553" x2="116.553" y1="263.787" y2="326.482" gradientTransform="matrix(0.91373704,0,0,0.91373704,21.915259,-96.65724)" gradientUnits="userSpaceOnUse" xlink:href="#linearGradient4541"/><linearGradient id="linearGradient1353-3" x1="198.758" x2="198.758" y1="261.081" y2="350.845" gradientTransform="matrix(0.91373705,0,0,0.91373705,-104.88326,-14.064614)" gradientUnits="userSpaceOnUse" xlink:href="#linearGradient890"/><linearGradient id="linearGradient1355-5" x1="215.365" x2="215.365" y1="261.441" y2="351.205" gradientTransform="matrix(0.91373705,0,0,0.91373705,-120.05818,-14.393204)" gradientUnits="userSpaceOnUse" xlink:href="#linearGradient890"/><linearGradient id="linearGradient1359-8" x1="242.167" x2="242.167" y1="263.366" y2="353.13" gradientTransform="matrix(0.91373705,0,0,0.91373705,8.9105916,-46.834965)" gradientUnits="userSpaceOnUse" xlink:href="#linearGradient921"/><linearGradient id="linearGradient1353-2" x1="196.815" x2="196.815" y1="263.109" y2="352.873" gradientTransform="matrix(-0.91373705,0,0,0.91373705,410.02455,-46.599789)" gradientUnits="userSpaceOnUse" xlink:href="#linearGradient921"/><linearGradient id="linearGradient894" x1="76.729" x2="76.729" y1="224.495" y2="306.516" gradientUnits="userSpaceOnUse" xlink:href="#linearGradient890"/><linearGradient id="linearGradient927" x1="230.188" x2="230.188" y1="193.813" y2="275.833" gradientUnits="userSpaceOnUse" xlink:href="#linearGradient921"/></defs><metadata id="metadata1286"/><g id="layer1" transform="translate(0,-87)"><g id="g2387" transform="translate(-2.44435,-41.761533)"><path id="path3256" fill="url(#linearGradient1349)" fill-opacity="1" fill-rule="evenodd" stroke="none" stroke-linecap="butt" stroke-linejoin="miter" stroke-opacity="1" stroke-width=".914" d="m 73.013926,144.37438 c -30.235077,0.29796 -38.803964,19.45951 -24.989205,52.89401 -2.514794,0.56609 -4.353187,0.72641 -5.354554,0.77542 -0.743467,0.0364 -0.276843,3.33661 0.328724,3.3155 3.776771,-0.13161 10.514435,-0.40772 14.598148,-0.38246 0.587299,0.004 0.843032,-4.25439 -1.328719,-10.00228 -1.907417,-5.04829 -4.671675,-11.99804 -4.56356,-20.93217 0.108113,-8.93415 0.03226,-19.27921 15.423335,-20.5502 0.481161,13.43254 0.31256,32.07087 -0.312792,46.51357 -2.537112,0.14592 -4.453609,0.60004 -5.346379,0.92276 -0.714519,0.25827 -0.02254,3.80249 0.573575,3.73267 0.943154,-0.11048 6.720904,-0.19498 10.971427,-0.19469 4.250524,-2.9e-4 7.805639,0.0517 8.744411,0.19469 0.458446,0.0698 0.730207,-3.69516 0.04724,-3.87034 -0.856733,-0.21976 -2.6716,-0.63917 -5.208711,-0.78509 -0.23366,-14.31403 -0.483532,-32.33484 0.375546,-46.51357 15.391069,1.27099 15.015549,12.16673 15.123665,21.10086 0.108116,8.93414 -2.426179,15.31632 -4.288227,20.38151 -1.758748,4.78423 -1.896827,10.00228 -1.166715,10.00228 3.670896,0 10.895489,0.012 14.578705,0.12383 0.72105,0.0219 1.07211,-2.88053 0.46078,-3.00538 -0.70504,-0.144 -3.742455,-0.43154 -5.604834,-0.68924 13.594474,-32.95542 5.649964,-52.87317 -23.06186,-53.03168 z"/><path id="path6136" fill="url(#linearGradient1351)" fill-opacity="1" fill-rule="evenodd" stroke="none" stroke-linecap="butt" stroke-linejoin="miter" stroke-opacity="1" stroke-width=".914" d="m 132.29197,170.63166 c -1.30382,2.73226 1.42853,26.63388 -8.61582,26.63929 -3.53801,0 -5.05354,-5.6346 -4.90136,-11.63904 0.12317,-4.85916 2.5395,-14.23294 1.97527,-14.81092 -0.74768,-0.76588 -11.35458,-0.39227 -12.14865,-0.36353 -0.75018,0.0271 -0.89092,3.67662 -0.11405,3.77526 1.0677,0.13556 2.02284,0.19385 3.1561,0.45928 -3.98303,14.36018 -1.39051,26.89902 11.70726,26.72214 5.35756,-0.11402 9.87733,-1.6148 12.28644,-4.75478 1.32295,1.72748 3.89454,4.28311 4.66363,4.12566 0.78531,-0.16077 5.86784,-5.14719 5.69258,-5.64605 -0.25356,-0.7217 -4.26205,-2.32657 -5.03072,-9.40115 -0.52104,-4.79547 0.32724,-14.65033 -0.16891,-15.30695 -0.41998,-0.55579 -8.15608,-0.52361 -8.50177,0.20079 z"/><path id="path6138" fill="url(#linearGradient1353)" fill-opacity="1" fill-rule="evenodd" stroke="none" stroke-linecap="butt" stroke-linejoin="miter" stroke-opacity="1" stroke-width=".914" d="m 177.93981,149.04671 c 0.10365,-1.33083 -8.7482,-3.39411 -8.80796,-2.58399 -0.76538,10.37343 0.0555,23.92722 -0.27534,25.07489 -0.10226,0.35481 -1.74064,-1.22643 -5.36204,-1.58378 -6.69608,-0.66073 -10.95892,1.67625 -13.07853,5.68137 -5.64073,10.65855 -0.23556,25.57567 11.70818,25.57567 6.34002,0 9.84176,-1.26749 11.28307,-4.51012 1.27262,2.0133 4.23806,3.83482 4.67554,3.69242 0.53507,-0.17418 6.4814,-5.72994 6.42354,-6.18713 -0.0653,-0.51645 -5.1172,-2.29362 -6.27443,-11.70849 -1.36559,-11.11001 -1.3106,-20.3741 -0.29203,-33.45084 z m -8.80796,28.31899 c 1.51434,21.8684 -4.86254,19.47096 -6.73094,19.18904 -5.82397,-0.87877 -5.65952,-10.02677 -4.74536,-16.06967 1.26006,-8.32947 11.31569,-5.11504 11.4763,-3.11937 z"/><path id="path6145" fill="url(#linearGradient1355)" fill-opacity="1" fill-rule="evenodd" stroke="none" stroke-linecap="butt" stroke-linejoin="miter" stroke-opacity="1" stroke-width=".914" d="m 217.39694,169.83493 c -12.25968,0 -13.8209,12.25069 -13.48643,17.48394 0.55262,8.64669 6.68809,14.16865 15.00123,14.0002 3.33731,-0.0665 10.9826,-2.23006 13.87434,-5.10358 -0.48072,-2.39253 -0.78578,-5.30484 -1.85147,-7.40968 -3.52678,3.34286 -8.57289,6.83203 -11.64759,6.83203 -3.13059,0 -5.27919,-3.12303 -5.87608,-7.3602 4.29279,-1.53922 15.91935,-4.5521 19.10981,-6.16553 -2.09565,-12.13986 -7.9385,-12.27718 -15.12381,-12.27718 z m 0.29066,3.97819 c 4.87455,-0.87502 4.61452,3.31849 5.01721,7.19965 -1.46757,0.68804 -7.32498,2.50354 -9.77303,2.97087 -0.3169,-5.46028 -0.43292,-9.2391 4.75582,-10.17052 z"/><path id="path3182" fill="url(#linearGradient1357)" fill-opacity="1" fill-rule="evenodd" stroke="none" stroke-linecap="butt" stroke-linejoin="miter" stroke-opacity="1" stroke-width=".914" d="m 187.64087,146.45492 c -0.7598,11.40185 -0.96769,20.56382 -0.96368,30.06572 0.004,8.50264 1.48356,15.69992 3.43,18.94853 1.98187,3.30773 5.21402,5.68069 5.78588,5.48406 0.47442,-0.16314 5.3527,-5.78482 5.32274,-6.20652 -0.0313,-0.44083 -5.04769,-2.71273 -5.60714,-12.53182 -0.59791,-10.494 -0.25722,-21.40666 0.68833,-32.47456 0.0477,-0.55869 -8.61489,-3.90423 -8.65613,-3.28541 z"/><path id="path6152" fill="url(#linearGradient1359)" fill-opacity="1" fill-rule="evenodd" stroke="none" stroke-linecap="butt" stroke-linejoin="miter" stroke-opacity="1" stroke-width=".914" d="m 238.09973,146.39681 c -0.0176,0.0118 -0.0272,0.0377 -0.0285,0.0571 -0.34477,5.1738 -0.56459,9.84183 -0.71385,14.33425 -3.21005,0.0488 -5.91952,0.18024 -6.73881,0.39976 -1.08733,0.29135 -0.94586,3.96428 0.11421,3.9976 2.01532,0.0633 4.25905,0.0896 6.51038,0.0856 -0.0846,3.78871 -0.14435,7.51345 -0.14277,11.25038 0.004,8.50266 1.48007,15.71144 3.42651,18.96005 1.98187,3.30774 5.22467,5.67906 5.79652,5.48242 0.47443,-0.16314 5.34105,-5.80313 5.3111,-6.22483 -0.0313,-0.44084 -5.03719,-2.71625 -5.59664,-12.53533 -0.31776,-5.57723 -0.36224,-11.27271 -0.19988,-17.04691 2.28082,-0.0475 4.84375,-0.0976 6.02495,-0.11422 0.73381,-0.0103 0.93208,-3.90815 0.0285,-4.02615 -0.72143,-0.0942 -3.12911,-0.15364 -5.91074,-0.19988 0.16847,-3.67024 0.42502,-7.36387 0.74242,-11.07906 0.0462,-0.54124 -8.07785,-3.7067 -8.6234,-3.34085 z"/></g><g id="g2374" transform="translate(5.291663,-30.6825)"><path id="path6138-3" fill="url(#linearGradient1353-3)" fill-opacity="1" fill-rule="evenodd" stroke="none" stroke-linecap="butt" stroke-linejoin="miter" stroke-opacity="1" stroke-width=".914" d="m 51.141292,231.63934 c 0.10365,-1.33083 -8.7482,-3.39411 -8.807959,-2.58399 -0.76538,10.37343 0.0555,23.92723 -0.27534,25.0749 -0.10226,0.35481 -1.74064,-1.22643 -5.362041,-1.58378 -6.696079,-0.66073 -10.958919,1.67625 -13.078529,5.68137 -5.64073,10.65855 -0.23556,25.57567 11.70818,25.57567 6.340019,0 9.84176,-1.2675 11.28307,-4.51013 1.272619,2.01331 4.238058,3.83482 4.675539,3.69243 0.535069,-0.17418 6.4814,-5.72994 6.423541,-6.18713 -0.0653,-0.51646 -5.117201,-2.29362 -6.27443,-11.70849 -1.365591,-11.11001 -1.3106,-20.37411 -0.292031,-33.45085 z m -8.807959,28.319 c 1.514339,21.8684 -4.862541,19.47096 -6.730941,19.18904 -5.823969,-0.87877 -5.659519,-10.02678 -4.745359,-16.06968 1.26006,-8.32946 11.31569,-5.11503 11.4763,-3.11936 z"/><path id="path6145-1" fill="url(#linearGradient1355-5)" fill-opacity="1" fill-rule="evenodd" stroke="none" stroke-linecap="butt" stroke-linejoin="miter" stroke-opacity="1" stroke-width=".914" d="m 75.4235,252.09896 c -12.25968,0 -13.8209,12.25069 -13.48643,17.48394 0.55262,8.64669 6.68809,14.16865 15.00123,14.0002 3.33731,-0.0665 10.9826,-2.23006 13.874339,-5.10358 -0.480719,-2.39253 -0.785778,-5.30484 -1.85147,-7.40968 -3.526779,3.34286 -8.572889,6.83203 -11.64759,6.83203 -3.130589,0 -5.279189,-3.12303 -5.876079,-7.3602 4.29279,-1.53922 15.91935,-4.5521 19.109809,-6.16553 C 88.451659,252.23628 82.60881,252.09896 75.4235,252.09896 Z m 0.290659,3.97819 c 4.874551,-0.87502 4.614521,3.31849 5.017211,7.19965 -1.46757,0.68804 -7.32498,2.50354 -9.77303,2.97087 -0.3169,-5.46028 -0.43292,-9.2391 4.755819,-10.17052 z"/><path id="path6136-3" fill="url(#linearGradient894)" fill-opacity="1" fill-rule="evenodd" stroke="none" stroke-linecap="butt" stroke-linejoin="miter" stroke-opacity="1" stroke-width=".932" d="m 118.54435,252.02084 c -0.80477,2.84786 0.39171,16.51781 -7.41935,23.49225 -3.27457,-3.18144 -4.85392,-6.09707 -5.48619,-12.02288 -0.47691,-4.46972 1.92786,-10.6711 1.36363,-11.2724 -0.74768,-0.79678 -11.354586,-0.4081 -12.148656,-0.3782 -0.75018,0.0282 -0.89092,3.82496 -0.11405,3.92758 1.0677,0.14103 2.02284,0.20167 3.156103,0.47781 -1.32292,15.13921 6.614573,26.14955 13.229163,27.52584 10.58333,-2.75257 12.84908,-12.44576 14.55208,-17.89179 1.32292,-5.50517 1.86519,-13.38399 1.36902,-14.0671 -0.41998,-0.57822 -8.24818,-0.5216 -8.24818,-0.5216 z"/></g><g id="g932"><path id="path6138-1" fill="url(#linearGradient927)" fill-opacity="1" fill-rule="evenodd" stroke="none" stroke-linecap="butt" stroke-linejoin="miter" stroke-opacity="1" stroke-width=".914" d="m 184.33787,272.40232 c -0.10365,1.33083 8.7482,3.39411 8.80796,2.58399 0.76538,-10.37343 -0.0555,-23.92722 0.27534,-25.07489 0.10226,-0.35481 1.74064,1.22643 5.36204,1.58378 6.69608,0.66073 10.95892,-1.67625 13.07853,-5.68137 5.64073,-10.65855 0.23556,-25.57567 -11.70818,-25.57567 -6.34002,0 -9.84176,1.2675 -11.28307,4.51013 -1.27262,-2.01331 -4.23806,-3.83482 -4.67554,-3.69243 -0.53507,0.17418 -6.4814,5.72994 -6.42354,6.18713 0.0653,0.51646 5.1172,2.29362 6.27443,11.70849 1.36559,11.11001 1.3106,20.37411 0.29203,33.45084 z m 8.80796,-28.31899 c -1.51434,-21.8684 4.86254,-19.47096 6.73094,-19.18904 5.82397,0.87877 5.65952,10.02678 4.74536,16.06968 -1.26006,8.32946 -11.31569,5.11503 -11.4763,3.11936 z"/><path id="path6152-0" fill="url(#linearGradient1359-8)" fill-opacity="1" fill-rule="evenodd" stroke="none" stroke-linecap="butt" stroke-linejoin="miter" stroke-opacity="1" stroke-width=".914" d="m 225.09506,196.21908 c -0.0176,0.0118 -0.0272,0.0377 -0.0285,0.0571 -0.34477,5.1738 -0.56459,9.84183 -0.71385,14.33425 -3.21005,0.0488 -5.91952,0.18024 -6.73881,0.39976 -1.08733,0.29135 -0.94586,3.96428 0.11421,3.9976 2.01532,0.0633 4.25905,0.0896 6.51038,0.0856 -0.0846,3.78872 -0.14435,7.51346 -0.14277,11.25039 0.004,8.50266 1.48007,15.71144 3.42651,18.96005 1.98187,3.30774 5.22467,5.67906 5.79652,5.48242 0.47443,-0.16314 5.34105,-5.80313 5.3111,-6.22483 -0.0313,-0.44084 -5.03719,-2.71625 -5.59664,-12.53533 -0.31776,-5.57723 -0.36224,-11.27271 -0.19988,-17.04692 2.28082,-0.0475 4.84375,-0.0976 6.02495,-0.11422 0.73381,-0.0103 0.93208,-3.90815 0.0285,-4.02615 -0.72143,-0.0942 -3.12911,-0.15364 -5.91074,-0.19988 0.16847,-3.67024 0.42502,-7.36387 0.74242,-11.07906 0.0462,-0.54124 -8.07785,-3.7067 -8.6234,-3.34085 z"/><path id="path6138-9" fill="url(#linearGradient1353-2)" fill-opacity="1" fill-rule="evenodd" stroke="none" stroke-linecap="butt" stroke-linejoin="miter" stroke-opacity="1" stroke-width=".914" d="m 254,199.10417 c -0.10365,-1.33083 8.7482,-3.39411 8.80796,-2.58399 0.76538,10.37343 -0.0555,23.92723 0.27534,25.0749 0.10226,0.35481 1.74064,-1.22643 5.36204,-1.58378 6.69608,-0.66073 10.95892,1.67625 13.07853,5.68137 5.64073,10.65855 0.23556,25.57567 -11.70818,25.57567 -6.34002,0 -9.84176,-1.2675 -11.28307,-4.51013 -1.27262,2.01331 -4.23806,3.83482 -4.67554,3.69243 -0.53507,-0.17418 -6.4814,-5.72994 -6.42354,-6.18713 0.0653,-0.51646 5.1172,-2.29362 6.27443,-11.70849 1.36559,-11.11001 1.3106,-20.37411 0.29203,-33.45085 z m 8.80796,28.319 c -1.51434,21.8684 4.86254,19.47096 6.73094,19.18904 5.82397,-0.87877 5.65952,-10.02678 4.74536,-16.06968 -1.26006,-8.32946 -11.31569,-5.11503 -11.4763,-3.11936 z"/></g></g></svg>