<?xml version="1.0" encoding="utf-8"?>


<!-- The icon can be used freely in both personal and commercial projects with no attribution required, but always appreciated. 
You may NOT sub-license, resell, rent, redistribute or otherwise transfer the icon without express written permission from iconmonstr.com -->


<!DOCTYPE svg PUBLIC "-//W3C//DTD SVG 1.1//EN" "http://www.w3.org/Graphics/SVG/1.1/DTD/svg11.dtd">

<svg version="1.1" xmlns="http://www.w3.org/2000/svg" xmlns:xlink="http://www.w3.org/1999/xlink" x="0px" y="0px"

	 width="512px" height="512px" viewBox="0 0 512 512" enable-background="new 0 0 512 512" xml:space="preserve">

<path id="refresh-3-icon" d="M373.223,142.573l-37.252,37.253c-20.225-20.224-48.162-32.731-79.021-32.731

	c-61.719,0-111.752,50.056-111.752,111.776c0,0.016,0-0.016,0,0h43.412l-69.342,69.315L50,258.871h42.514c0-0.008,0,0.006,0,0

	c0-90.816,73.621-164.46,164.436-164.46C302.357,94.411,343.467,112.816,373.223,142.573z M462,253.129l-69.268-69.316

	l-69.342,69.316h43.412c0,0.016,0-0.017,0,0c0,61.72-50.033,111.776-111.752,111.776c-30.859,0-58.797-12.508-79.021-32.731

	l-37.252,37.253c29.758,29.757,70.867,48.162,116.273,48.162c90.814,0,164.436-73.644,164.436-164.459c0-0.007,0,0.008,0,0H462z"/>

</svg>

